<svg width="112" height="110" viewBox="0 0 112 110" fill="none" xmlns="http://www.w3.org/2000/svg">
<rect x="13" y="12" width="86" height="84" rx="25" fill="black"/>
<g clip-path="url(#clip0)">
<path d="M84.8118 63.7106C80.7761 60.1445 75.3237 59.213 70.8476 60.8766C68.7408 57.3867 65.203 53.3438 60.8972 49.5389C56.5907 45.7335 52.1289 42.7076 48.3815 41.0245C49.5662 36.4523 48.0293 31.2078 43.9937 27.6417C38.3801 22.6813 30.0257 22.8183 25.3701 27.9467C20.7145 33.0752 21.4936 41.283 27.1071 46.2433C31.1425 49.8092 36.5943 50.7409 41.0704 49.0776C43.1786 52.568 46.7173 56.611 51.0231 60.4158C55.3281 64.22 59.7895 67.246 63.5372 68.9302C62.3529 73.5022 63.8899 78.7462 67.9253 82.3121C73.5388 87.2725 81.8933 87.1356 86.5489 82.0071C91.2045 76.8787 90.4253 68.671 84.8118 63.7106ZM29.2595 43.8724C25.0771 40.1766 24.4965 34.0611 27.9653 30.24C31.4341 26.4189 37.6589 26.3169 41.8413 30.0127C46.0237 33.7085 46.6043 39.824 43.1355 43.6451C39.6667 47.4662 33.442 47.5683 29.2595 43.8724ZM53.1754 58.045C49.186 54.5198 45.8313 50.698 43.9298 47.5481C44.5744 47.0809 45.1791 46.5459 45.7307 45.9384C46.2819 45.3311 46.7544 44.6796 47.1542 43.9965C50.5358 45.5141 54.7544 48.3838 58.7448 51.9099C62.7345 55.4354 66.0883 59.257 67.9882 62.4066C67.3439 62.8737 66.7394 63.4084 66.1882 64.0156C65.6367 64.6231 65.1642 65.2748 64.7642 65.9582C61.3823 64.4394 57.164 61.5696 53.1754 58.045ZM70.0776 79.9412C65.8952 76.2455 65.3146 70.1299 68.7834 66.3089C72.2522 62.4878 78.477 62.3858 82.6594 66.0816C86.8418 69.7774 87.4224 75.8929 83.9536 79.714C80.4848 83.5351 74.2601 83.6371 70.0776 79.9412Z" fill="white"/>
<path d="M81.7716 67.0596C81.0551 66.4264 79.9922 66.4437 79.3978 67.0984C78.8035 67.7532 78.9027 68.7974 79.6192 69.4305C81.7804 71.3402 82.0805 74.5004 80.288 76.4749C79.6936 77.1297 79.7929 78.1739 80.5094 78.807C81.2259 79.4402 82.2888 79.4229 82.8832 78.7682C85.8627 75.4864 85.3639 70.2339 81.7716 67.0596Z" fill="white"/>
<path d="M41.2887 31.2868C40.5722 30.6537 39.5093 30.6709 38.9149 31.3257C38.3205 31.9804 38.4198 33.0246 39.1363 33.6578C41.2975 35.5675 41.5976 38.7276 39.8051 40.7022C39.2107 41.3569 39.3099 42.4011 40.0265 43.0343C40.743 43.6675 41.8059 43.6502 42.4003 42.9954C45.3796 39.7135 44.881 34.4611 41.2887 31.2868Z" fill="white"/>
<g clip-path="url(#clip1)">
<path d="M78.9174 26.2309L78.1373 27.1169L74.5733 24.0625C73.2972 22.9688 71.4112 23.0422 70.3691 24.2258L68.5801 26.2576C67.4311 25.8045 66.1073 26.0493 65.2951 26.9718L63.4723 29.0421C62.4302 30.2257 62.6204 32.0784 63.8965 33.1721L68.9745 37.524L42.294 67.827L37.2161 63.475C35.9399 62.3814 34.0539 62.4547 33.0118 63.6383L31.1889 65.7088C30.3767 66.6312 30.3164 67.9586 30.9316 69.0178L29.1429 71.0494C28.1008 72.233 28.2911 74.0858 29.5671 75.1794L33.1311 78.2338L32.3514 79.1193C31.7873 79.76 31.8898 80.7594 32.5806 81.3514C33.2714 81.9434 34.2888 81.9038 34.8528 81.2632L35.6325 80.3776L39.5537 83.7381C40.8298 84.8318 42.7158 84.7584 43.7579 83.5748L45.5468 81.5432C46.6958 81.9963 48.0197 81.7516 48.8319 80.8291L50.6548 78.7587C51.6969 77.5751 51.5068 75.7223 50.2306 74.6287L44.7955 69.9706L71.476 39.6675L76.9112 44.3256C78.1873 45.4193 80.0733 45.3459 81.1154 44.1623L82.9382 42.092C83.7504 41.1695 83.8108 39.842 83.1954 38.7828L84.9843 36.751C86.0264 35.5674 85.8362 33.7147 84.5601 32.621L80.6389 29.2605L81.419 28.3745C81.9831 27.7338 81.8806 26.7344 81.1898 26.1424C80.499 25.5504 79.4815 25.5901 78.9174 26.2309ZM31.7973 73.0195L33.3143 71.2966L42.9264 79.5344L41.4094 81.2574L31.7973 73.0195ZM46.4833 78.5117L45.1565 77.3746L35.1699 68.8159L33.8431 67.6788L35.3602 65.9557L48.0002 76.7885L46.4831 78.5116L46.4833 78.5117ZM80.2838 40.122L78.7668 41.8449L66.1267 31.012L67.6436 29.289L68.9703 30.426L78.9569 38.9848L80.2838 40.122ZM80.8127 36.5041L71.2006 28.2663L72.7177 26.5432L82.3298 34.781L80.8127 36.5041Z" fill="white"/>
</g>
</g>
<defs>
<clipPath id="clip0">
<rect width="81.6419" height="75.4894" fill="white" transform="matrix(0.749356 0.662168 -0.67215 0.740415 50.7402 0)"/>
</clipPath>
<clipPath id="clip1">
<rect width="73.5734" height="78.3701" fill="white" transform="matrix(0.660686 -0.750391 0.759454 0.650873 3 56)"/>
</clipPath>
</defs>
</svg>
