<svg width="40" height="40" viewBox="0 0 40 40" fill="none" xmlns="http://www.w3.org/2000/svg">
<path d="M17.0927 5.4049C16.2306 5.4049 15.5317 4.70605 15.5317 3.84392V1.58051C15.5317 0.71838 16.2306 0.0195312 17.0927 0.0195312C17.9548 0.0195312 18.6537 0.71838 18.6537 1.58051V3.84392C18.6537 4.70605 17.9548 5.4049 17.0927 5.4049ZM24.9782 6.3791L26.227 4.34983C26.6788 3.61563 26.4498 2.65407 25.7157 2.20224C24.9813 1.75034 24.0199 1.97934 23.5681 2.71354L22.3193 4.74281C21.8675 5.47701 22.0965 6.43857 22.8306 6.8904C23.0858 7.04743 23.3682 7.1222 23.6473 7.1222C24.1714 7.1222 24.6834 6.85817 24.9782 6.3791ZM29.2512 11.4807L31.2024 10.2319C31.9286 9.7672 32.1405 8.80181 31.6757 8.07565C31.2109 7.34948 30.2456 7.13758 29.5195 7.60236L27.5682 8.85114C26.8421 9.31584 26.6302 10.2812 27.0949 11.0074C27.3929 11.473 27.8966 11.7272 28.4112 11.7272C28.6992 11.7271 28.9906 11.6474 29.2512 11.4807ZM5.38537 17.1122C5.38537 16.2501 4.68652 15.5512 3.82439 15.5512H1.56098C0.698849 15.5512 0 16.2501 0 17.1122C0 17.9743 0.698849 18.6732 1.56098 18.6732H3.82439C4.68652 18.6732 5.38537 17.9743 5.38537 17.1122ZM6.99387 11.2181C7.40254 10.459 7.1186 9.51237 6.35957 9.10363L4.3303 8.01095C3.57143 7.60244 2.62462 7.88622 2.2158 8.64525C1.80714 9.40435 2.09108 10.351 2.85011 10.7597L4.87938 11.8524C5.11485 11.9792 5.3682 12.0394 5.61811 12.0394C6.17389 12.0394 6.71196 11.7417 6.99387 11.2181ZM4.24788 26.0748L6.23649 24.9688C6.98989 24.5499 7.26103 23.5994 6.84199 22.846C6.42302 22.0927 5.47262 21.8213 4.71914 22.2405L2.73054 23.3464C1.97713 23.7654 1.70599 24.7159 2.12503 25.4693C2.41038 25.9825 2.94228 26.2719 3.49065 26.2719C3.74728 26.2719 4.00765 26.2084 4.24788 26.0748ZM10.0988 31.094L11.315 29.1708C11.7758 28.4422 11.5587 27.478 10.83 27.0172C10.1017 26.5564 9.13733 26.7735 8.67645 27.5022L7.46021 29.4254C6.99941 30.154 7.21655 31.1182 7.94521 31.579C8.2041 31.7428 8.49272 31.821 8.77807 31.821C9.29545 31.8209 9.80176 31.5636 10.0988 31.094ZM10.9904 7.12088C11.7199 6.6614 11.9387 5.69766 11.4793 4.96814L10.2964 3.09005C9.83703 2.36053 8.87329 2.14168 8.14369 2.60115C7.41424 3.06062 7.1954 4.02437 7.65479 4.75389L8.8377 6.63198C9.13444 7.10308 9.64152 7.36127 10.1599 7.36127C10.4443 7.36127 10.7321 7.28361 10.9904 7.12088ZM13.3891 24.4579C13.9114 23.772 13.7789 22.7926 13.093 22.2704C11.4683 21.0331 10.5366 19.153 10.5366 17.1122C10.5366 13.5402 13.4426 10.6342 17.0146 10.6342C19.1286 10.6342 21.1146 11.6689 22.3273 13.4022C22.8215 14.1087 23.7948 14.2805 24.5012 13.7864C25.2076 13.2921 25.3796 12.3188 24.8853 11.6124C23.0889 9.04501 20.1467 7.51221 17.0146 7.51221C11.7212 7.51221 7.41463 11.8188 7.41463 17.1122C7.41463 20.136 8.79493 22.9214 11.2016 24.754C11.4841 24.9693 11.8164 25.0733 12.1462 25.0733C12.6167 25.0733 13.082 24.8612 13.3891 24.4579ZM16.039 38.4195C16.039 26.0682 26.0876 16.0195 38.439 16.0195C39.3012 16.0195 40 15.3207 40 14.4586C40 13.5964 39.3012 12.8976 38.439 12.8976C34.9973 12.8976 31.6567 13.5725 28.5097 14.9039C25.4708 16.1895 22.7415 18.0294 20.3975 20.3725C15.5737 25.1946 12.9171 31.6038 12.9171 38.4195C12.9171 39.2817 13.6159 39.9805 14.478 39.9805C15.3402 39.9805 16.039 39.2817 16.039 38.4195ZM22.2049 38.4195C22.2049 29.468 29.4875 22.1854 38.439 22.1854C39.3012 22.1854 40 21.4865 40 20.6244C40 19.7623 39.3012 19.0634 38.439 19.0634C33.2575 19.0634 28.3927 21.0771 24.7405 24.7334C21.0921 28.3858 19.0829 33.2464 19.0829 38.4195C19.0829 39.2817 19.7818 39.9805 20.6439 39.9805C21.506 39.9805 22.2049 39.2817 22.2049 38.4195ZM28.3707 38.4195C28.3707 32.8678 32.8873 28.3512 38.439 28.3512C39.3012 28.3512 40 27.6524 40 26.7903C40 25.9281 39.3012 25.2293 38.439 25.2293C34.9083 25.2293 31.5931 26.6015 29.1042 29.0932C26.6181 31.5823 25.2488 34.8945 25.2488 38.4195C25.2488 39.2817 25.9476 39.9805 26.8098 39.9805C27.6719 39.9805 28.3707 39.2817 28.3707 38.4195Z" fill="#FFE600"/>
</svg>
