<svg width="25" height="25" viewBox="0 0 25 25" fill="none" xmlns="http://www.w3.org/2000/svg">
<g clip-path="url(#clip0)">
<path d="M18.0512 19.0642L14.6674 16.4354V15.3347C15.8773 14.6071 16.6887 13.2817 16.6887 11.77V8.42921C16.6887 6.89931 15.4441 5.65467 13.9142 5.65467H10.808L10.5942 5.24581C10.5142 5.09258 10.3721 4.98027 10.2046 4.93769C10.037 4.89506 9.85862 4.92592 9.71505 5.02227C8.87605 5.58548 8.37515 6.52502 8.37515 7.53552V11.7699C8.37515 12.1893 8.43755 12.6034 8.56065 13.001C8.62047 13.1942 8.82556 13.3022 9.01883 13.2425C9.21205 13.1827 9.32016 12.9776 9.26035 12.7843C9.15897 12.457 9.1076 12.1157 9.1076 11.7699V9.61818C11.3577 9.23242 13.6586 9.23277 15.9563 9.61931V11.7699C15.9563 13.6581 14.4201 15.1943 12.5319 15.1943C11.5414 15.1943 10.5995 14.7645 9.94783 14.0152C9.81511 13.8626 9.58375 13.8465 9.43115 13.9792C9.27856 14.112 9.2624 14.3433 9.39517 14.4959C9.65641 14.7963 9.95628 15.054 10.2838 15.2649V16.4353L6.89998 19.0641C5.83138 19.8943 5.21851 21.1465 5.21851 22.4996V24.6219C5.21851 24.8242 5.38248 24.9881 5.58473 24.9881C5.78699 24.9881 5.95096 24.8242 5.95096 24.6219V22.4996C5.95096 21.3743 6.46065 20.3329 7.34932 19.6426L10.388 17.2819C10.671 18.1651 11.4997 18.8065 12.4756 18.8065C13.4516 18.8065 14.2803 18.1652 14.5632 17.2819L17.6019 19.6426C18.4906 20.3329 19.0003 21.3743 19.0003 22.4996V24.6219C19.0003 24.8242 19.1643 24.9881 19.3665 24.9881C19.5688 24.9881 19.7328 24.8242 19.7328 24.6219V22.4996C19.7327 21.1466 19.1198 19.8943 18.0512 19.0642V19.0642ZM9.10756 8.87572V7.53562C9.10756 6.81586 9.44273 6.14366 10.0109 5.71092L10.2616 6.19063C10.3248 6.31144 10.4498 6.38717 10.5861 6.38717H13.9141C15.0402 6.38717 15.9562 7.30323 15.9562 8.42926V8.87718C13.6596 8.50402 11.36 8.50348 9.10756 8.87572V8.87572ZM12.4756 18.074C11.6709 18.074 11.0162 17.4194 11.0162 16.6147V15.6401C11.4939 15.8276 12.0073 15.9268 12.5319 15.9268C13.0241 15.9268 13.4964 15.8403 13.935 15.6826V16.6147C13.9349 17.4194 13.2803 18.074 12.4756 18.074V18.074Z" fill="#4D5968"/>
<path d="M8.34279 22.3672C8.14054 22.3672 7.97656 22.5312 7.97656 22.7334V24.6223C7.97656 24.8245 8.14054 24.9885 8.34279 24.9885C8.54505 24.9885 8.70902 24.8245 8.70902 24.6223V22.7334C8.70902 22.5312 8.54509 22.3672 8.34279 22.3672Z" fill="#4D5968"/>
<path d="M16.6082 22.3672C16.4059 22.3672 16.2419 22.5312 16.2419 22.7334V24.6223C16.2419 24.8245 16.4059 24.9885 16.6082 24.9885C16.8104 24.9885 16.9744 24.8245 16.9744 24.6223V22.7334C16.9744 22.5312 16.8104 22.3672 16.6082 22.3672Z" fill="#4D5968"/>
<path d="M0.803062 20.0379L3.56056 17.6631C3.64138 17.5935 3.68781 17.4921 3.68781 17.3855V16.4819C3.95321 16.5875 4.24219 16.6462 4.54479 16.6462C4.84739 16.6462 5.13637 16.5875 5.40176 16.4819V17.3855C5.40176 17.4921 5.4482 17.5935 5.52901 17.6631L6.2413 18.2765C6.31045 18.3361 6.39546 18.3652 6.48013 18.3652C6.58302 18.3652 6.68537 18.3221 6.75783 18.238C6.88982 18.0848 6.87258 17.8535 6.7193 17.7215L6.13422 17.2176V16.016C6.58687 15.5914 6.87043 14.9886 6.87043 14.3205V13.3212C6.87043 12.0389 5.82712 10.9956 4.54479 10.9956C3.2624 10.9956 2.21909 12.0389 2.21909 13.3212V14.3205C2.21909 14.9886 2.5027 15.5914 2.95536 16.0161V17.2176L0.325061 19.4829C0.158989 19.6259 0.0637207 19.8337 0.0637207 20.0529V21.3255C0.0637207 21.6708 0.310363 21.9657 0.650076 22.0268C1.79427 22.2326 2.96683 22.348 4.13525 22.3698C4.13759 22.3698 4.13989 22.3698 4.14223 22.3698C4.34131 22.3698 4.5045 22.2103 4.50826 22.0104C4.51202 21.8082 4.35118 21.6412 4.14892 21.6375C3.02489 21.6165 1.89706 21.506 0.796225 21.3088V20.0528C0.796225 20.0471 0.798716 20.0416 0.803062 20.0379V20.0379ZM2.9516 13.3212C2.9516 12.4427 3.66633 11.7281 4.54484 11.7281C5.42334 11.7281 6.13803 12.4428 6.13803 13.3212V14.3205C6.13803 15.199 5.42329 15.9138 4.54484 15.9138C3.66633 15.9138 2.9516 15.199 2.9516 14.3205V13.3212Z" fill="#4D5968"/>
<path d="M21.3758 17.3856C21.3758 17.4922 21.4223 17.5935 21.503 17.6631L22.1092 18.1851C22.1784 18.2447 22.2634 18.2738 22.348 18.2738C22.4509 18.2738 22.5533 18.2307 22.6257 18.1466C22.7577 17.9934 22.7405 17.7621 22.5872 17.6301L22.1082 17.2176V16.016C22.5609 15.5914 22.8445 14.9886 22.8445 14.3205V13.3213C22.8445 12.0389 21.8011 10.9956 20.5188 10.9956C19.2364 10.9956 18.1931 12.0389 18.1931 13.3213V14.3205C18.1931 14.9886 18.4767 15.5914 18.9293 16.016V17.2176L18.3442 17.7215C18.191 17.8535 18.1738 18.0847 18.3057 18.2379C18.3781 18.3221 18.4805 18.3652 18.5834 18.3652C18.668 18.3652 18.7531 18.336 18.8222 18.2765L19.5345 17.663C19.6153 17.5934 19.6618 17.4921 19.6618 17.3855V16.4819C19.9272 16.5875 20.2162 16.6462 20.5188 16.6462C20.8214 16.6462 21.1103 16.5875 21.3757 16.4819V17.3856H21.3758ZM20.5189 15.9138C19.6404 15.9138 18.9257 15.199 18.9257 14.3205V13.3213C18.9257 12.4427 19.6404 11.7281 20.5189 11.7281C21.3974 11.7281 22.1121 12.4428 22.1121 13.3213V14.3205C22.112 15.199 21.3974 15.9138 20.5189 15.9138Z" fill="#4D5968"/>
<path d="M24.7386 19.4829L23.7917 18.6673C23.6384 18.5354 23.4071 18.5526 23.2751 18.7059C23.1432 18.8592 23.1604 19.0904 23.3137 19.2224L24.2606 20.0379C24.265 20.0417 24.2675 20.0471 24.2675 20.053V21.309C23.1667 21.5061 22.0388 21.6167 20.9148 21.6376C20.7126 21.6414 20.5517 21.8084 20.5555 22.0106C20.5592 22.2105 20.7224 22.37 20.9215 22.37C20.9238 22.37 20.9262 22.37 20.9285 22.3699C22.0969 22.3482 23.2694 22.2327 24.4136 22.0269C24.7534 21.9658 25 21.6709 25 21.3257V20.053C24.9999 19.8337 24.9047 19.6259 24.7386 19.4829Z" fill="#4D5968"/>
<path d="M21.5363 6.20695H21.3441C21.2087 6.20695 21.0843 6.28166 21.0207 6.40124L20.4554 7.46438L19.9089 6.40525C19.8461 6.28347 19.7205 6.20695 19.5835 6.20695H17.3125C17.1103 6.20695 16.9463 6.37092 16.9463 6.57318C16.9463 6.77543 17.1103 6.9394 17.3125 6.9394H19.3604L19.8498 7.88798C19.9664 8.11373 20.1965 8.25499 20.4506 8.25655H20.4549C20.7072 8.25655 20.9372 8.11846 21.0559 7.89541L21.5642 6.93931C23.4613 6.92422 25 5.37629 25 3.47572C25 2.82969 24.8203 2.19885 24.4804 1.65136C24.3737 1.47953 24.1479 1.42674 23.9761 1.53339C23.8043 1.64008 23.7514 1.86588 23.8581 2.03771C24.1259 2.46908 24.2675 2.96632 24.2675 3.47572C24.2676 4.98174 23.0423 6.20695 21.5363 6.20695V6.20695Z" fill="#4D5968"/>
<path d="M3.43576 6.93924L3.94418 7.89539C4.06279 8.11845 4.29278 8.25654 4.54518 8.25654H4.54948C4.8035 8.25498 5.03373 8.11371 5.15019 7.88797L5.63967 6.93939H7.39029C7.59254 6.93939 7.75651 6.77542 7.75651 6.57316C7.75651 6.37091 7.59254 6.20693 7.39029 6.20693H5.41656C5.27954 6.20693 5.15395 6.28345 5.09111 6.40523L4.54455 7.46437L3.97929 6.40123C3.91571 6.28164 3.79134 6.20693 3.65593 6.20693H3.46374C1.95771 6.20693 0.732456 4.98168 0.732456 3.47565C0.732456 1.96962 1.95771 0.744419 3.46374 0.744419H21.5363C21.9951 0.744419 22.4491 0.860587 22.8491 1.08032C23.0265 1.17774 23.249 1.11294 23.3465 0.935688C23.4439 0.758434 23.3791 0.535767 23.2018 0.43835C22.694 0.159431 22.1181 0.0119629 21.5363 0.0119629H3.46374C1.55383 0.0119629 0 1.5658 0 3.4757C0 5.37628 1.5387 6.9242 3.43576 6.93924V6.93924Z" fill="#4D5968"/>
<path d="M5.70803 3.19279C5.65286 3.52643 5.93865 3.81222 6.27229 3.75705C6.47444 3.7236 6.63742 3.56056 6.67087 3.35846C6.72605 3.02482 6.44026 2.73908 6.10661 2.7942C5.90452 2.8276 5.74148 2.99064 5.70803 3.19279V3.19279Z" fill="#4D5968"/>
<path d="M9.89746 3.27539C9.89746 3.54463 10.1165 3.76367 10.3857 3.76367C10.655 3.76367 10.874 3.54463 10.874 3.27539C10.874 3.00615 10.655 2.78711 10.3857 2.78711C10.1165 2.78711 9.89746 3.00615 9.89746 3.27539Z" fill="#4D5968"/>
<path d="M19.2988 3.27539C19.2988 3.00615 19.0798 2.78711 18.8106 2.78711C18.5413 2.78711 18.3223 3.00615 18.3223 3.27539C18.3223 3.54463 18.5413 3.76367 18.8106 3.76367C19.0798 3.76367 19.2988 3.54463 19.2988 3.27539Z" fill="#4D5968"/>
<path d="M14.1257 3.27539C14.1257 3.54463 14.3448 3.76367 14.614 3.76367C14.8833 3.76367 15.1023 3.54463 15.1023 3.27539C15.1023 3.00615 14.8833 2.78711 14.614 2.78711C14.3448 2.78711 14.1257 3.00615 14.1257 3.27539Z" fill="#4D5968"/>
</g>
<defs>
<clipPath id="clip0">
<rect width="25" height="25" fill="white"/>
</clipPath>
</defs>
</svg>
