<svg width="65" height="65" viewBox="0 0 65 65" fill="none" xmlns="http://www.w3.org/2000/svg">
<path d="M19.4238 40.752C19.4238 42.5048 18.0028 43.9258 16.25 43.9258C12.04 43.7586 12.0411 37.7447 16.25 37.5781C18.0028 37.5781 19.4238 38.9991 19.4238 40.752ZM27.168 37.5781C25.4151 37.5781 23.9941 38.9991 23.9941 40.752C24.1613 44.962 30.1752 44.9608 30.3418 40.752C30.3418 38.9991 28.9208 37.5781 27.168 37.5781ZM38.0859 37.5781C36.3331 37.5781 34.9121 38.9991 34.9121 40.752C35.0793 44.962 41.0932 44.9608 41.2598 40.752C41.2598 38.9991 39.8388 37.5781 38.0859 37.5781ZM16.25 48.4961C14.4972 48.4961 13.0762 49.9171 13.0762 51.6699C13.2434 55.8799 19.2573 55.8788 19.4238 51.6699C19.4238 49.9171 18.0028 48.4961 16.25 48.4961ZM27.168 48.4961C25.4151 48.4961 23.9941 49.9171 23.9941 51.6699C24.1613 55.8799 30.1752 55.8788 30.3418 51.6699C30.3418 49.9171 28.9208 48.4961 27.168 48.4961ZM38.0859 48.4961C36.3331 48.4961 34.9121 49.9171 34.9121 51.6699C35.0793 55.8799 41.0932 55.8788 41.2598 51.6699C41.2598 49.9171 39.8388 48.4961 38.0859 48.4961ZM49.0039 48.4961C47.2511 48.4961 45.8301 49.9171 45.8301 51.6699C45.9973 55.8799 52.0112 55.8788 52.1777 51.6699C52.1777 49.9171 50.7567 48.4961 49.0039 48.4961ZM65 28.9453V49.7656C65 58.1659 58.1659 65 49.7656 65H15.2344C6.83414 65 0 58.1659 0 49.7656V28.9453C0 20.5451 6.83414 13.7109 15.2344 13.7109H49.7656C58.1659 13.7109 65 20.5451 65 28.9453ZM59.9219 28.9453C59.9219 23.3452 55.3658 18.7891 49.7656 18.7891H15.2344C9.63422 18.7891 5.07812 23.3452 5.07812 28.9453V49.7656C5.07812 55.3658 9.63422 59.9219 15.2344 59.9219H49.7656C55.3658 59.9219 59.9219 55.3658 59.9219 49.7656V28.9453ZM52.3047 27.6758H12.6953C9.32648 27.8098 9.32902 32.621 12.6953 32.7539H52.3047C55.6735 32.6198 55.671 27.8087 52.3047 27.6758ZM25.6445 7.61719C25.6445 9.01951 24.5078 10.1562 23.1055 10.1562C21.7031 10.1562 20.5664 9.01951 20.5664 7.61719C20.5664 6.21715 19.4274 5.07812 18.0273 5.07812C16.6273 5.07812 15.4883 6.21715 15.4883 7.61719C15.4883 9.01951 14.3515 10.1562 12.9492 10.1562C11.5469 10.1562 10.4102 9.01951 10.4102 7.61719C10.8288 -2.48841 25.2277 -2.48473 25.6445 7.61719ZM47.2266 0C43.0264 0 39.6094 3.41707 39.6094 7.61719C39.6094 9.01951 40.7461 10.1562 42.1484 10.1562C43.5508 10.1562 44.6875 9.01951 44.6875 7.61719C44.6875 6.21715 45.8265 5.07812 47.2266 5.07812C48.6266 5.07812 49.7656 6.21715 49.7656 7.61719C49.7656 9.01951 50.9024 10.1562 52.3047 10.1562C53.707 10.1562 54.8438 9.01951 54.8438 7.61719C54.8438 3.41707 51.4267 0 47.2266 0ZM49.0039 37.5781C47.2511 37.5781 45.8301 38.9991 45.8301 40.752C45.9973 44.962 52.0112 44.9608 52.1777 40.752C52.1777 38.9991 50.7567 37.5781 49.0039 37.5781Z" fill="#4D5968"/>
</svg>
