<svg width="40" height="40" viewBox="0 0 40 40" fill="none" xmlns="http://www.w3.org/2000/svg">
<path d="M38.4375 21.5617H36.875C36.012 21.5617 35.3125 20.8622 35.3125 19.9992C35.3125 19.1362 36.012 18.4367 36.875 18.4367H38.4375C39.3005 18.4367 40 19.1362 40 19.9992C40 20.8622 39.3005 21.5617 38.4375 21.5617ZM4.6875 19.9992C4.6875 19.1362 3.98797 18.4367 3.125 18.4367H1.5625C0.699531 18.4367 0 19.1362 0 19.9992C0 20.8622 0.699531 21.5617 1.5625 21.5617H3.125C3.98797 21.5617 4.6875 20.8622 4.6875 19.9992ZM12.3428 6.73875C13.0901 6.30727 13.3461 5.35164 12.9146 4.6043L12.1333 3.25117C11.7017 2.50383 10.7461 2.24789 9.99883 2.67938C9.25156 3.11086 8.99555 4.06648 9.42703 4.81383L10.2084 6.16695C10.4978 6.6682 11.023 6.94836 11.5629 6.94836C11.828 6.94836 12.0967 6.88086 12.3428 6.73875ZM37.4172 29.8121C37.8405 29.0602 37.5743 28.1074 36.8223 27.684L35.4609 26.9173C34.709 26.4941 33.7562 26.7603 33.3327 27.5122C32.9094 28.2641 33.1756 29.2169 33.9276 29.6403L35.2891 30.407C35.5314 30.5434 35.7946 30.6082 36.0542 30.6082C36.6002 30.6083 37.1302 30.3217 37.4172 29.8121ZM6.64758 12.4857C7.07102 11.7338 6.80469 10.7809 6.05281 10.3576L4.69133 9.59094C3.93937 9.1675 2.98656 9.43391 2.5632 10.1857C2.13977 10.9377 2.40609 11.8905 3.15797 12.3138L4.51945 13.0805C4.76188 13.217 5.02508 13.2818 5.28469 13.2818C5.83062 13.2818 6.3607 12.9952 6.64758 12.4857ZM21.3281 3.12492V1.5625C21.3281 0.699531 20.6286 0 19.7656 0C18.9027 0 18.2031 0.699531 18.2031 1.5625V3.12492C18.2031 3.98789 18.9027 4.68742 19.7656 4.68742C20.6286 4.68742 21.3281 3.98789 21.3281 3.12492ZM4.62719 30.3121L5.99336 29.5539C6.74789 29.1352 7.02016 28.1841 6.60133 27.4295C6.18258 26.6749 5.23141 26.4027 4.47695 26.8216L3.11078 27.5798C2.35625 27.9985 2.08398 28.9496 2.50281 29.7041C2.78828 30.2185 3.32109 30.5087 3.87039 30.5087C4.12687 30.5087 4.38703 30.4454 4.62719 30.3121ZM30.4422 37.0584C31.1781 36.6078 31.4095 35.6459 30.959 34.9099L30.1432 33.5773C29.6927 32.8414 28.7308 32.6099 27.9948 33.0605C27.2588 33.511 27.0274 34.4729 27.478 35.2089L28.2938 36.5416C28.5884 37.023 29.102 37.2885 29.6279 37.2885C29.9059 37.2884 30.1877 37.2142 30.4422 37.0584ZM12.1333 36.7488L12.9146 35.3957C13.3461 34.6484 13.0902 33.6928 12.3428 33.2612C11.5955 32.8297 10.6398 33.0857 10.2084 33.833L9.42703 35.1862C8.99555 35.9334 9.25148 36.8891 9.99883 37.3206C10.2449 37.4627 10.5135 37.5303 10.7787 37.5303C11.3187 37.5302 11.8439 37.25 12.1333 36.7488ZM21.3281 38.4375V36.8751C21.3281 36.0121 20.6286 35.3126 19.7656 35.3126C18.9027 35.3126 18.2031 36.0121 18.2031 36.8751V38.4375C18.2031 39.3005 18.9027 40 19.7656 40C20.6286 40 21.3281 39.3005 21.3281 38.4375ZM32.1875 20.0008V19.9992C32.1875 13.279 26.7202 7.81172 20 7.81172C13.2798 7.81172 7.8125 13.279 7.8125 20.0008C7.8125 26.721 13.2798 32.1883 20 32.1883C26.7202 32.1883 32.1875 26.7209 32.1875 20.0008ZM29.0625 19.9996V20.0008C29.0625 24.9979 24.997 29.0633 20 29.0633C15.003 29.0633 10.9375 24.9979 10.9375 19.9992C10.9375 15.0021 15.003 10.9367 20 10.9367C24.997 10.9367 29.0625 15.0021 29.0625 19.9996ZM28.8091 7.16961C28.5309 7.16961 28.2494 7.09539 27.9948 6.93953C27.2588 6.48898 27.0274 5.52711 27.478 4.79109L28.2938 3.45844C28.7444 2.7225 29.7062 2.49102 30.4422 2.94164C31.1781 3.39219 31.4095 4.35406 30.959 5.09008L30.1432 6.42266C29.8485 6.90406 29.335 7.16961 28.8091 7.16961ZM35.4899 13.1459L36.8546 12.385C37.6083 11.9648 37.8786 11.013 37.4584 10.2594C37.0383 9.5057 36.0866 9.23547 35.3328 9.65555L33.9681 10.4165C33.2145 10.8367 32.9441 11.7884 33.3643 12.5421C33.6502 13.0549 34.1822 13.344 34.7304 13.344C34.988 13.344 35.2491 13.2802 35.4899 13.1459Z" fill="#63C7FF"/>
</svg>
