<svg width="512" height="512" viewBox="0 0 512 512" fill="none" xmlns="http://www.w3.org/2000/svg">
<path d="M437.019 74.981C388.666 26.629 324.379 0 256 0C187.619 0 123.332 26.629 74.979 74.981C26.628 123.333 0 187.62 0 256C0 324.38 26.628 388.667 74.979 437.02C123.332 485.371 187.619 512 256 512C264.283 512 271 505.284 271 497C271 488.716 264.283 482 256 482C131.383 482 30 380.617 30 256C30 131.383 131.383 30 256 30C380.616 30 482 131.383 482 256V316.25C482 341.201 461.701 361.5 436.75 361.5C411.799 361.5 391.5 341.201 391.5 316.25V256C391.5 181.285 330.715 120.5 256 120.5C181.285 120.5 120.5 181.285 120.5 256C120.5 330.715 181.285 391.5 256 391.5C300.316 391.5 339.73 370.114 364.468 337.122C373.54 368.49 402.499 391.5 436.75 391.5C478.243 391.5 512 357.743 512 316.25V256C512 187.62 485.371 123.333 437.019 74.981ZM256 361.5C197.826 361.5 150.5 314.173 150.5 256C150.5 197.827 197.826 150.5 256 150.5C314.173 150.5 361.5 197.827 361.5 256C361.5 314.173 314.173 361.5 256 361.5Z" fill="white"/>
</svg>
