<svg id="Capa_1" enable-background="new 0 0 512 512" height="512" viewBox="0 0 512 512" width="512" xmlns="http://www.w3.org/2000/svg"><g><path d="m466.057 460.546h-30.2l-.014-203.029c0-4.143-3.358-7.5-7.5-7.5s-7.5 3.357-7.5 7.5l.014 203.029h-73.552v-27.037h28.074c4.142 0 7.5-3.357 7.5-7.5s-3.358-7.5-7.5-7.5h-28.074v-27.038h11.917c4.142 0 7.5-3.357 7.5-7.5s-3.358-7.5-7.5-7.5h-11.917v-27.038h28.074c4.142 0 7.5-3.357 7.5-7.5s-3.358-7.5-7.5-7.5h-28.074v-27.038h11.917c4.142 0 7.5-3.357 7.5-7.5s-3.358-7.5-7.5-7.5h-11.917v-27.038h28.074c4.142 0 7.5-3.357 7.5-7.5s-3.358-7.5-7.5-7.5h-28.074v-27.038h11.917c4.142 0 7.5-3.357 7.5-7.5s-3.358-7.5-7.5-7.5h-11.917v-27.037h28.074c4.142 0 7.5-3.357 7.5-7.5s-3.358-7.5-7.5-7.5h-28.074v-27.038h11.917c4.142 0 7.5-3.357 7.5-7.5s-3.358-7.5-7.5-7.5h-11.917v-27.039h28.074c4.142 0 7.5-3.357 7.5-7.5s-3.358-7.5-7.5-7.5h-28.074v-27.038h73.552v167.872c0 4.143 3.358 7.5 7.5 7.5s7.5-3.357 7.5-7.5v-167.893c6.725-.221 12.132-5.747 12.132-12.525v-30.075c-.001-6.918-5.629-12.546-12.546-12.546h-229.998c-4.142 0-7.5 3.357-7.5 7.5s3.358 7.5 7.5 7.5h74.533v12.569c0 15.218 12.367 27.598 27.569 27.598h24.757v405.379h-83.027c-2.745-15.071-18.319-27.644-34.123-31.705-1.694-.44-2.66-.767-3.203-.982-.111-1.147-.111-3.151-.111-4.458v-40.298c5.672-1.177 9.949-6.212 9.949-12.228v-64.328c3.22 1.469 6.793 2.294 10.556 2.294 14.092 0 25.557-11.478 25.557-25.585v-56.466-8.816c0-21.463-6.257-39.826-18.094-53.105-8.613-9.662-19.721-16.107-32.658-19.092 9.878-11.157 16.311-24.901 16.311-37.362v-15.762c0-19.765-6.332-36.555-18.31-48.556-10.722-10.742-25.15-16.799-40.627-17.054-.082-.002-.165-.002-.247 0-15.487.255-29.92 6.312-40.639 17.055-11.971 11.997-18.298 28.787-18.298 48.555v15.761c0 12.463 6.427 26.205 16.298 37.362-12.942 2.985-24.054 9.429-32.669 19.09-11.84 13.278-18.098 31.642-18.098 53.106v8.816 56.466c0 14.107 11.477 25.585 25.584 25.585 3.764 0 7.336-.825 10.557-2.294v64.328c0 6.017 4.277 11.052 9.949 12.228v40.299c0 1.305 0 3.306-.111 4.452-.544.217-1.513.543-3.213.983-15.809 4.062-31.375 16.636-34.115 31.71h-20.823c-14.17 0-25.698 11.541-25.698 25.728v13.322c0 6.84 5.552 12.404 12.375 12.404h420.68c7.136 0 12.942-5.806 12.942-12.942v-25.568c.001-7.136-5.805-12.943-12.941-12.943zm-171.079-432.977v-12.569h138.01v25.167h-125.441c-6.931 0-12.569-5.651-12.569-12.598zm-61.208 432.977h-61.87v-77.183h24.939v40.037c0 10.999 1.435 16.554 14.562 19.963 8.581 2.206 19.207 9.166 22.369 17.183zm9.132-177.291c0 5.837-4.736 10.585-10.557 10.585s-10.556-4.748-10.556-10.585v-48.966h21.113zm-78.502-241.211c19.092.37 39.453 13.32 43.383 40.767-2.062-1.2-3.572-2.743-5.191-4.397-3.042-3.106-7.344-7.502-14.867-7.502-1.751 0-3.677.238-5.803.787-2.703.694-15.361 4.072-17.522 4.072-2.16 0-14.818-3.378-17.515-4.071-11.262-2.9-16.935 2.886-20.689 6.716-1.617 1.65-3.125 3.188-5.178 4.388 3.935-27.441 24.293-40.391 43.382-40.76zm-44.06 66.37v-9.351c8.741-2.168 13.327-6.84 16.57-10.149 3.234-3.301 3.359-3.429 6.236-2.688 2.651.682 17.127 4.545 21.255 4.545s18.604-3.863 21.262-4.546c2.863-.741 2.989-.61 6.211 2.682 3.243 3.313 7.83 7.991 16.588 10.159v9.349c0 15.729-16.096 36.022-33.777 42.577-3.869 1.438-7.137 2.108-10.284 2.108-3.142 0-6.423-.672-10.318-2.111-17.661-6.548-33.743-26.84-33.743-42.575zm61.835 55.738c-1.097 10.099-8.642 17.946-17.774 17.946-9.128 0-16.67-7.841-17.772-17.933.745.313 1.494.611 2.247.89 5.619 2.076 10.553 3.044 15.525 3.044 4.988 0 9.917-.969 15.504-3.047.761-.281 1.517-.583 2.27-.9zm-50.7-4.86v2.328c0 19.562 14.771 35.479 32.926 35.479 18.156 0 32.926-15.916 32.926-35.479v-2.327c28.309 3.24 45.575 25.092 45.575 58.68v1.316h-28.613c-4.142 0-7.5 3.357-7.5 7.5v48.966h-26.316c-4.142 0-7.5 3.357-7.5 7.5s3.358 7.5 7.5 7.5h26.316v77.608h-34.889v-38.49h7.693c4.142 0 7.5-3.357 7.5-7.5s-3.358-7.5-7.5-7.5h-30.386c-4.142 0-7.5 3.357-7.5 7.5s3.358 7.5 7.5 7.5h7.693v38.49h-34.888v-77.608h26.571c4.142 0 7.5-3.357 7.5-7.5s-3.358-7.5-7.5-7.5h-26.571v-48.966c0-4.143-3.358-7.5-7.5-7.5h-28.641v-1.316c0-33.589 17.277-55.442 45.604-58.681zm-35.019 134.548c-5.836 0-10.584-4.748-10.584-10.585v-48.966h21.141v48.966c-.001 5.837-4.737 10.585-10.557 10.585zm20.927 149.52c13.14-3.401 14.578-8.957 14.578-19.96v-40.037h24.939v77.183h-61.872c3.157-8.02 13.774-14.98 22.355-17.186zm346.616 53.64h-415.998v-10.727c0-5.915 4.799-10.728 10.698-10.728h405.3z"/></g></svg>