<svg width="25" height="25" viewBox="0 0 25 25" fill="none" xmlns="http://www.w3.org/2000/svg">
<path d="M23.7562 0H22.0774C21.3912 0 20.8333 0.557917 20.8333 1.24375V2.91667V5.41667V20.9442L22.4999 23.8608V24.5833C22.4999 24.8137 22.6862 25 22.9166 25C23.147 25 23.3333 24.8137 23.3333 24.5833V23.8608L24.9999 20.9442V5.41667V2.91667V1.24375C24.9999 0.557917 24.442 0 23.7562 0ZM21.6666 3.75H24.1666V4.58333H21.6666V3.75ZM22.9166 22.91L21.9678 21.25H23.8653L22.9166 22.91ZM24.1666 20.4167H21.6666V5.41667H24.1666V20.4167ZM21.6666 2.91667V1.24375C21.6666 1.0175 21.8508 0.833333 22.077 0.833333H23.7558C23.9824 0.833333 24.1666 1.0175 24.1666 1.24375V2.91667H21.6666Z" fill="#4D5968"/>
<path d="M0 0V25H4.16667H19.1667V0H4.16667H0ZM0.833333 24.1667V0.833333H3.33333V24.1667H0.833333ZM18.3333 0.833333V24.1667H4.16667V0.833333H18.3333Z" fill="#4D5968"/>
<path d="M16.25 10.0001V4.16675H6.25V10.0001H16.25ZM7.08333 5.00008H15.4167V9.16675H7.08333V5.00008Z" fill="#4D5968"/>
<path d="M14.1666 5.83325H8.33325V6.66658H14.1666V5.83325Z" fill="#4D5968"/>
<path d="M14.1666 7.5H8.33325V8.33333H14.1666V7.5Z" fill="#4D5968"/>
</svg>
