<svg width="40" height="40" viewBox="0 0 40 40" fill="none" xmlns="http://www.w3.org/2000/svg">
<g clip-path="url(#clip0)">
<path d="M26.5816 40C21.2346 40 16.2076 37.9198 12.4265 34.1427C8.64508 30.3652 6.5625 25.3426 6.5625 20.0001C6.5625 14.6664 8.64914 9.64555 12.4382 5.86227C16.2245 2.08172 21.247 0 26.5816 0H26.5912C27.8193 0.000546875 29.0498 0.113438 30.2486 0.335469C31.741 0.611953 32.9116 1.6968 33.3036 3.16664C33.6955 4.63641 33.2205 6.16 32.0641 7.14281C28.2806 10.3578 26.1107 15.0441 26.1107 20C26.1107 24.956 28.2806 29.6423 32.0642 32.8573C33.2198 33.8394 33.6944 35.3595 33.3024 36.8245C32.9069 38.3031 31.7243 39.3937 30.2163 39.6705C29.0247 39.8891 27.8019 40 26.5816 40ZM26.5816 3.125C22.0806 3.125 17.8427 4.88211 14.6462 8.07359C11.4485 11.2665 9.6875 15.502 9.6875 20.0001C9.6875 29.3049 17.2662 36.875 26.5816 36.875C27.6131 36.875 28.6462 36.7814 29.652 36.5968C30.1041 36.5137 30.2443 36.1636 30.2835 36.0169C30.3301 35.8429 30.3604 35.5105 30.0406 35.2388C25.5571 31.4288 22.9857 25.8745 22.9857 20C22.9857 14.1255 25.557 8.57133 30.0404 4.76141C30.3745 4.47742 30.322 4.11461 30.284 3.9718C30.2459 3.82891 30.1107 3.48813 29.6793 3.4082C28.6673 3.22078 27.6279 3.12547 26.5897 3.125C26.5872 3.125 26.5841 3.125 26.5816 3.125ZM7.34375 2.1875C8.42242 2.1875 9.29688 3.06195 9.29688 4.14062C9.29688 5.2193 8.42242 6.09375 7.34375 6.09375C6.26508 6.09375 5.39062 5.2193 5.39062 4.14062C5.39062 3.06195 6.26508 2.1875 7.34375 2.1875ZM36.0938 26.4844C36.0938 27.563 36.9682 28.4375 38.0469 28.4375C39.1255 28.4375 40 27.563 40 26.4844C40 25.4057 39.1255 24.5312 38.0469 24.5312C36.9682 24.5312 36.0938 25.4057 36.0938 26.4844ZM31.5625 15.9375C31.5625 17.0162 32.437 17.8906 33.5156 17.8906C34.5943 17.8906 35.4688 17.0162 35.4688 15.9375C35.4688 14.8588 34.5943 13.9844 33.5156 13.9844C32.437 13.9844 31.5625 14.8588 31.5625 15.9375ZM0 14.2969C0 15.3755 0.874453 16.25 1.95312 16.25C3.0318 16.25 3.90625 15.3755 3.90625 14.2969C3.90625 13.2182 3.0318 12.3438 1.95312 12.3438C0.874453 12.3438 0 13.2182 0 14.2969ZM5.15625 38.0469C5.15625 39.1255 6.0307 40 7.10938 40C8.18805 40 9.0625 39.1255 9.0625 38.0469C9.0625 36.9682 8.18805 36.0938 7.10938 36.0938C6.0307 36.0938 5.15625 36.9682 5.15625 38.0469Z" fill="#AD1DE0"/>
</g>
<defs>
<clipPath id="clip0">
<rect width="40" height="40" fill="white"/>
</clipPath>
</defs>
</svg>
