<svg width="40" height="40" viewBox="0 0 40 40" fill="none" xmlns="http://www.w3.org/2000/svg">
<path d="M36.4286 16.4286H24.2857C23.8913 16.4286 23.5714 16.1087 23.5714 15.7143V3.57143C23.5714 1.59912 21.9723 0 20 0C18.0277 0 16.4286 1.59912 16.4286 3.57143V15.7143C16.4286 16.1087 16.1087 16.4286 15.7143 16.4286H3.57143C1.59912 16.4286 0 18.0277 0 20C0 21.9723 1.59912 23.5714 3.57143 23.5714H15.7143C16.1087 23.5714 16.4286 23.8913 16.4286 24.2857V36.4286C16.4286 38.4009 18.0277 40 20 40C21.9723 40 23.5714 38.4009 23.5714 36.4286V24.2857C23.5714 23.8913 23.8913 23.5714 24.2857 23.5714H36.4286C38.4009 23.5714 40 21.9723 40 20C40 18.0277 38.4009 16.4286 36.4286 16.4286Z" fill="#43DA40"/>
</svg>
