<svg width="153" height="81" viewBox="0 0 153 81" fill="none" xmlns="http://www.w3.org/2000/svg">
<g filter="url(#filter0_d)">
<path d="M14.8986 27.216C13.0266 27.216 11.2266 26.916 9.49856 26.316C7.79456 25.716 6.47456 24.924 5.53856 23.94L6.58256 21.888C7.49456 22.8 8.70656 23.544 10.2186 24.12C11.7306 24.672 13.2906 24.948 14.8986 24.948C17.1546 24.948 18.8466 24.54 19.9746 23.724C21.1026 22.884 21.6666 21.804 21.6666 20.484C21.6666 19.476 21.3546 18.672 20.7306 18.072C20.1306 17.472 19.3866 17.016 18.4986 16.704C17.6106 16.368 16.3746 16.008 14.7906 15.624C12.8946 15.144 11.3826 14.688 10.2546 14.256C9.12656 13.8 8.15456 13.116 7.33856 12.204C6.54656 11.292 6.15056 10.056 6.15056 8.496C6.15056 7.224 6.48656 6.072 7.15856 5.04C7.83056 3.984 8.86256 3.144 10.2546 2.52C11.6466 1.896 13.3746 1.584 15.4386 1.584C16.8786 1.584 18.2826 1.788 19.6506 2.196C21.0426 2.58 22.2426 3.12 23.2506 3.816L22.3506 5.94C21.2946 5.244 20.1666 4.728 18.9666 4.392C17.7666 4.032 16.5906 3.852 15.4386 3.852C13.2306 3.852 11.5626 4.284 10.4346 5.148C9.33056 5.988 8.77856 7.08 8.77856 8.424C8.77856 9.432 9.07856 10.248 9.67856 10.872C10.3026 11.472 11.0706 11.94 11.9826 12.276C12.9186 12.588 14.1666 12.936 15.7266 13.32C17.5746 13.776 19.0626 14.232 20.1906 14.688C21.3426 15.12 22.3146 15.792 23.1066 16.704C23.8986 17.592 24.2946 18.804 24.2946 20.34C24.2946 21.612 23.9466 22.776 23.2506 23.832C22.5786 24.864 21.5346 25.692 20.1186 26.316C18.7026 26.916 16.9626 27.216 14.8986 27.216ZM39.315 7.92C41.091 7.92 42.699 8.328 44.139 9.144C45.579 9.936 46.707 11.064 47.523 12.528C48.339 13.992 48.747 15.66 48.747 17.532C48.747 19.428 48.339 21.108 47.523 22.572C46.707 24.036 45.579 25.176 44.139 25.992C42.723 26.784 41.115 27.18 39.315 27.18C37.779 27.18 36.387 26.868 35.139 26.244C33.915 25.596 32.907 24.66 32.115 23.436L32.115 33.984L29.559 33.984L29.559 8.064L32.007 8.064L32.007 11.808C32.775 10.56 33.783 9.6 35.031 8.928C36.303 8.256 37.731 7.92 39.315 7.92ZM39.135 24.912C40.455 24.912 41.655 24.612 42.735 24.012C43.815 23.388 44.655 22.512 45.255 21.384C45.879 20.256 46.191 18.972 46.191 17.532C46.191 16.092 45.879 14.82 45.255 13.716C44.655 12.588 43.815 11.712 42.735 11.088C41.655 10.464 40.455 10.152 39.135 10.152C37.791 10.152 36.579 10.464 35.499 11.088C34.443 11.712 33.603 12.588 32.979 13.716C32.379 14.82 32.079 16.092 32.079 17.532C32.079 18.972 32.379 20.256 32.979 21.384C33.603 22.512 34.443 23.388 35.499 24.012C36.579 24.612 37.791 24.912 39.135 24.912ZM61.6974 27.18C59.8734 27.18 58.2294 26.772 56.7654 25.956C55.3014 25.116 54.1494 23.964 53.3094 22.5C52.4694 21.036 52.0494 19.38 52.0494 17.532C52.0494 15.684 52.4694 14.028 53.3094 12.564C54.1494 11.1 55.3014 9.96 56.7654 9.144C58.2294 8.328 59.8734 7.92 61.6974 7.92C63.5214 7.92 65.1654 8.328 66.6294 9.144C68.0934 9.96 69.2334 11.1 70.0494 12.564C70.8894 14.028 71.3094 15.684 71.3094 17.532C71.3094 19.38 70.8894 21.036 70.0494 22.5C69.2334 23.964 68.0934 25.116 66.6294 25.956C65.1654 26.772 63.5214 27.18 61.6974 27.18ZM61.6974 24.912C63.0414 24.912 64.2414 24.612 65.2974 24.012C66.3774 23.388 67.2174 22.512 67.8174 21.384C68.4174 20.256 68.7174 18.972 68.7174 17.532C68.7174 16.092 68.4174 14.808 67.8174 13.68C67.2174 12.552 66.3774 11.688 65.2974 11.088C64.2414 10.464 63.0414 10.152 61.6974 10.152C60.3534 10.152 59.1414 10.464 58.0614 11.088C57.0054 11.688 56.1654 12.552 55.5414 13.68C54.9414 14.808 54.6414 16.092 54.6414 17.532C54.6414 18.972 54.9414 20.256 55.5414 21.384C56.1654 22.512 57.0054 23.388 58.0614 24.012C59.1414 24.612 60.3534 24.912 61.6974 24.912ZM78.9757 11.772C79.5757 10.5 80.4637 9.54 81.6397 8.892C82.8397 8.244 84.3157 7.92 86.0677 7.92L86.0677 10.404L85.4557 10.368C83.4637 10.368 81.9037 10.98 80.7757 12.204C79.6477 13.428 79.0837 15.144 79.0837 17.352L79.0837 27L76.5277 27L76.5277 8.064L78.9757 8.064L78.9757 11.772ZM101.476 25.848C100.996 26.28 100.396 26.616 99.6763 26.856C98.9803 27.072 98.2483 27.18 97.4803 27.18C95.7043 27.18 94.3363 26.7 93.3763 25.74C92.4163 24.78 91.9363 23.424 91.9363 21.672L91.9363 10.224L88.5523 10.224L88.5523 8.064L91.9363 8.064L91.9363 3.924L94.4923 3.924L94.4923 8.064L100.252 8.064L100.252 10.224L94.4923 10.224L94.4923 21.528C94.4923 22.656 94.7683 23.52 95.3203 24.12C95.8963 24.696 96.7123 24.984 97.7683 24.984C98.2963 24.984 98.8003 24.9 99.2803 24.732C99.7843 24.564 100.216 24.324 100.576 24.012L101.476 25.848ZM104.374 16.128L113.806 16.128L113.806 18.36L104.374 18.36L104.374 16.128ZM120.064 1.79999L122.728 1.79999L122.728 27L120.064 27L120.064 1.79999ZM135.823 4.10399L126.967 4.10399L126.967 1.79999L147.343 1.79999L147.343 4.10399L138.487 4.10399L138.487 27L135.823 27L135.823 4.10399ZM47.1602 71.216C44.6642 71.216 42.4082 70.664 40.3922 69.56C38.4002 68.456 36.8282 66.932 35.6762 64.988C34.5482 63.02 33.9842 60.824 33.9842 58.4C33.9842 55.976 34.5482 53.792 35.6762 51.848C36.8282 49.88 38.4122 48.344 40.4282 47.24C42.4442 46.136 44.7002 45.584 47.1962 45.584C49.0682 45.584 50.7962 45.896 52.3802 46.52C53.9642 47.144 55.3082 48.056 56.4122 49.256L54.7202 50.948C52.7522 48.956 50.2682 47.96 47.2682 47.96C45.2762 47.96 43.4642 48.416 41.8322 49.328C40.2002 50.24 38.9162 51.488 37.9802 53.072C37.0682 54.656 36.6122 56.432 36.6122 58.4C36.6122 60.368 37.0682 62.144 37.9802 63.728C38.9162 65.312 40.2002 66.56 41.8322 67.472C43.4642 68.384 45.2762 68.84 47.2682 68.84C50.2922 68.84 52.7762 67.832 54.7202 65.816L56.4122 67.508C55.3082 68.708 53.9522 69.632 52.3442 70.28C50.7602 70.904 49.0322 71.216 47.1602 71.216ZM61.5512 44.288L64.1072 44.288L64.1072 71L61.5512 71L61.5512 44.288ZM88.2832 52.064L88.2832 71L85.8352 71L85.8352 67.544C85.1632 68.696 84.2392 69.596 83.0632 70.244C81.8872 70.868 80.5432 71.18 79.0312 71.18C76.5592 71.18 74.6032 70.496 73.1632 69.128C71.7472 67.736 71.0392 65.708 71.0392 63.044L71.0392 52.064L73.5952 52.064L73.5952 62.792C73.5952 64.784 74.0872 66.296 75.0712 67.328C76.0552 68.36 77.4592 68.876 79.2832 68.876C81.2752 68.876 82.8472 68.276 83.9992 67.076C85.1512 65.852 85.7272 64.16 85.7272 62L85.7272 52.064L88.2832 52.064ZM105.198 51.92C106.974 51.92 108.582 52.328 110.022 53.144C111.462 53.936 112.59 55.064 113.406 56.528C114.222 57.992 114.63 59.66 114.63 61.532C114.63 63.404 114.222 65.072 113.406 66.536C112.59 68 111.462 69.14 110.022 69.956C108.582 70.772 106.974 71.18 105.198 71.18C103.614 71.18 102.186 70.844 100.914 70.172C99.6658 69.5 98.6578 68.528 97.8898 67.256L97.8898 71L95.4418 71L95.4418 44.288L97.9978 44.288L97.9978 55.664C98.7898 54.44 99.7978 53.516 101.022 52.892C102.27 52.244 103.662 51.92 105.198 51.92ZM105.018 68.912C106.338 68.912 107.538 68.612 108.618 68.012C109.698 67.388 110.538 66.512 111.138 65.384C111.762 64.256 112.074 62.972 112.074 61.532C112.074 60.092 111.762 58.808 111.138 57.68C110.538 56.552 109.698 55.688 108.618 55.088C107.538 54.464 106.338 54.152 105.018 54.152C103.674 54.152 102.462 54.464 101.382 55.088C100.326 55.688 99.4858 56.552 98.8618 57.68C98.2618 58.808 97.9618 60.092 97.9618 61.532C97.9618 62.972 98.2618 64.256 98.8618 65.384C99.4858 66.512 100.326 67.388 101.382 68.012C102.462 68.612 103.674 68.912 105.018 68.912Z" fill="black"/>
<path d="M9.49856 26.316L9.16643 27.2592L9.17055 27.2607L9.49856 26.316ZM5.53856 23.94L4.64728 23.4865L4.32661 24.1168L4.814 24.6292L5.53856 23.94ZM6.58256 21.888L7.28966 21.1809L6.3158 20.207L5.69128 21.4345L6.58256 21.888ZM10.2186 24.12L9.86253 25.0546L9.87562 25.0594L10.2186 24.12ZM19.9746 23.724L20.5607 24.5343L20.5718 24.526L19.9746 23.724ZM20.7306 18.072L20.0235 18.7791L20.0304 18.786L20.0374 18.7928L20.7306 18.072ZM18.4986 16.704L18.1447 17.6393L18.1558 17.6435L18.1671 17.6475L18.4986 16.704ZM14.7906 15.624L14.5451 16.5935L14.555 16.5958L14.7906 15.624ZM10.2546 14.256L9.87977 15.1831L9.88831 15.1866L9.89691 15.1899L10.2546 14.256ZM7.33856 12.204L6.58352 12.8597L6.58838 12.8653L6.59332 12.8708L7.33856 12.204ZM7.15856 5.04L7.9966 5.5857L8.00222 5.57687L7.15856 5.04ZM10.2546 2.52L10.6636 3.43251L10.6636 3.43251L10.2546 2.52ZM19.6506 2.196L19.3648 3.15429L19.3747 3.15724L19.3846 3.15999L19.6506 2.196ZM23.2506 3.816L24.1713 4.20615L24.4892 3.45601L23.8187 2.9931L23.2506 3.816ZM22.3506 5.94L21.8002 6.77496L22.8028 7.43575L23.2713 6.33015L22.3506 5.94ZM18.9666 4.392L18.6792 5.34983L18.688 5.35248L18.6969 5.35496L18.9666 4.392ZM10.4346 5.148L11.0401 5.94383L11.0426 5.94188L10.4346 5.148ZM9.67856 10.872L8.95772 11.5651L8.97132 11.5792L8.98545 11.5928L9.67856 10.872ZM11.9826 12.276L11.6369 13.2143L11.6515 13.2197L11.6663 13.2247L11.9826 12.276ZM15.7266 13.32L15.9661 12.3491L15.9656 12.349L15.7266 13.32ZM20.1906 14.688L19.8158 15.6151L19.8275 15.6199L19.8394 15.6243L20.1906 14.688ZM23.1066 16.704L22.3515 17.3597L22.3603 17.3696L23.1066 16.704ZM23.2506 23.832L22.4156 23.2817L22.4126 23.2863L23.2506 23.832ZM20.1186 26.316L20.5087 27.2368L20.5153 27.234L20.5218 27.2311L20.1186 26.316ZM14.8986 26.216C13.1356 26.216 11.4466 25.9338 9.82657 25.3713L9.17055 27.2607C11.0065 27.8982 12.9176 28.216 14.8986 28.216L14.8986 26.216ZM9.83068 25.3728C8.22857 24.8086 7.06031 24.0889 6.26312 23.2508L4.814 24.6292C5.88881 25.7591 7.36055 26.6234 9.16643 27.2592L9.83068 25.3728ZM6.42984 24.3935L7.47384 22.3415L5.69128 21.4345L4.64728 23.4865L6.42984 24.3935ZM5.87545 22.5951C6.90911 23.6288 8.25129 24.4407 9.86256 25.0545L10.5746 23.1855C9.16182 22.6473 8.08001 21.9712 7.28966 21.1809L5.87545 22.5951ZM9.87562 25.0594C11.4974 25.6514 13.1735 25.948 14.8986 25.948L14.8986 23.948C13.4077 23.948 11.9637 23.6926 10.5615 23.1806L9.87562 25.0594ZM14.8986 25.948C17.2452 25.948 19.1856 25.529 20.5607 24.5342L19.3884 22.9138C18.5075 23.551 17.0639 23.948 14.8986 23.948L14.8986 25.948ZM20.5718 24.526C21.9339 23.5117 22.6666 22.1433 22.6666 20.484L20.6666 20.484C20.6666 21.4647 20.2712 22.2563 19.3773 22.922L20.5718 24.526ZM22.6666 20.484C22.6666 19.2526 22.2762 18.1709 21.4237 17.3512L20.0374 18.7928C20.4329 19.1731 20.6666 19.6994 20.6666 20.484L22.6666 20.484ZM21.4377 17.3649C20.7206 16.6479 19.8438 16.1167 18.83 15.7605L18.1671 17.6475C18.9293 17.9153 19.5405 18.2961 20.0235 18.7791L21.4377 17.3649ZM18.8524 15.7687C17.9081 15.4114 16.6263 15.0401 15.0262 14.6521L14.555 16.5958C16.1229 16.9759 17.313 17.3246 18.1447 17.6393L18.8524 15.7687ZM15.036 14.6546C13.1579 14.1791 11.6882 13.7342 10.6122 13.3221L9.89691 15.1899C11.0769 15.6418 12.6312 16.1089 14.5451 16.5934L15.036 14.6546ZM10.6293 13.3289C9.64396 12.9305 8.79846 12.3359 8.0838 11.5372L6.59332 12.8708C7.51066 13.8961 8.60915 14.6695 9.87977 15.1831L10.6293 13.3289ZM8.09359 11.5483C7.50106 10.866 7.15056 9.88693 7.15056 8.496L5.15056 8.496C5.15056 10.2251 5.59206 11.718 6.58352 12.8597L8.09359 11.5483ZM7.15056 8.496C7.15056 7.41101 7.43389 6.44976 7.99656 5.58567L6.32056 4.49433C5.53922 5.69423 5.15056 7.03699 5.15056 8.496L7.15056 8.496ZM8.00222 5.57687C8.54821 4.71888 9.41072 3.99415 10.6636 3.43251L9.8455 1.60749C8.31439 2.29385 7.1129 3.24911 6.3149 4.50312L8.00222 5.57687ZM10.6636 3.43251C11.89 2.88273 13.4685 2.584 15.4386 2.584L15.4386 0.583998C13.2806 0.583998 11.4031 0.909268 9.8455 1.60749L10.6636 3.43251ZM15.4386 2.584C16.7826 2.584 18.0903 2.77419 19.3648 3.15429L19.9364 1.23771C18.4748 0.801806 16.9745 0.583998 15.4386 0.583998L15.4386 2.584ZM19.3846 3.15999C20.6875 3.51941 21.7813 4.01675 22.6824 4.63889L23.8187 2.9931C22.7038 2.22325 21.3976 1.64059 19.9165 1.23201L19.3846 3.15999ZM22.3298 3.42585L21.4298 5.54985L23.2713 6.33015L24.1713 4.20615L22.3298 3.42585ZM22.9009 5.10504C21.7598 4.35297 20.5373 3.79335 19.2362 3.42903L18.6969 5.35496C19.7958 5.66265 20.8293 6.13503 21.8002 6.77496L22.9009 5.10504ZM19.2539 3.43417C17.9688 3.04864 16.696 2.852 15.4386 2.852L15.4386 4.852C16.4851 4.852 17.5643 5.01536 18.6792 5.34983L19.2539 3.43417ZM15.4386 2.852C13.1251 2.852 11.2021 3.30047 9.82648 4.35412L11.0426 5.94188C11.923 5.26753 13.336 4.852 15.4386 4.852L15.4386 2.852ZM9.82904 4.35217C8.48585 5.37416 7.77856 6.75609 7.77856 8.424L9.77856 8.424C9.77856 7.40391 10.1753 6.60184 11.0401 5.94383L9.82904 4.35217ZM7.77856 8.424C7.77856 9.6448 8.14929 10.7243 8.95772 11.5651L10.3994 10.1789C10.0078 9.77166 9.77856 9.2192 9.77856 8.424L7.77856 8.424ZM8.98545 11.5928C9.72054 12.2996 10.6112 12.8365 11.6369 13.2143L12.3283 11.3377C11.5299 11.0435 10.8846 10.6444 10.3717 10.1512L8.98545 11.5928ZM11.6663 13.2247C12.6385 13.5487 13.9155 13.904 15.4875 14.291L15.9656 12.349C14.4177 11.968 13.1986 11.6273 12.2988 11.3273L11.6663 13.2247ZM15.487 14.2909C17.3115 14.7411 18.749 15.1839 19.8158 15.6151L20.5653 13.7609C19.3761 13.2801 17.8376 12.8109 15.9661 12.3491L15.487 14.2909ZM19.8394 15.6243C20.8386 15.999 21.6708 16.5758 22.3515 17.3597L23.8616 16.0483C22.9583 15.0082 21.8466 14.241 20.5417 13.7517L19.8394 15.6243ZM22.3603 17.3696C22.9459 18.0262 23.2946 18.9761 23.2946 20.34L25.2946 20.34C25.2946 18.6319 24.8513 17.1578 23.8529 16.0384L22.3603 17.3696ZM23.2946 20.34C23.2946 21.4176 23.0033 22.39 22.4156 23.2817L24.0855 24.3823C24.8898 23.162 25.2946 21.8064 25.2946 20.34L23.2946 20.34ZM22.4126 23.2863C21.8707 24.1184 20.9991 24.8352 19.7153 25.4009L20.5218 27.2311C22.07 26.5488 23.2864 25.6096 24.0886 24.3777L22.4126 23.2863ZM19.7284 25.3952C18.4703 25.9284 16.8718 26.216 14.8986 26.216L14.8986 28.216C17.0533 28.216 18.9348 27.9036 20.5087 27.2368L19.7284 25.3952ZM44.139 9.144L43.6459 10.0141L43.6571 10.0202L44.139 9.144ZM47.523 12.528L48.3965 12.0411L47.523 12.528ZM47.523 22.572L48.3965 23.0589L48.3965 23.0589L47.523 22.572ZM44.139 25.992L44.6272 26.8648L44.632 26.862L44.139 25.992ZM35.139 26.244L34.6711 27.1278L34.6814 27.1332L34.6918 27.1384L35.139 26.244ZM32.115 23.436L32.9546 22.8927L31.115 20.0498L31.115 23.436L32.115 23.436ZM32.115 33.984L32.115 34.984L33.115 34.984L33.115 33.984L32.115 33.984ZM29.559 33.984L28.559 33.984L28.559 34.984L29.559 34.984L29.559 33.984ZM29.559 8.064L29.559 7.064L28.559 7.064L28.559 8.064L29.559 8.064ZM32.007 8.064L33.007 8.064L33.007 7.064L32.007 7.064L32.007 8.064ZM32.007 11.808L31.007 11.808L31.007 15.341L32.8587 12.3321L32.007 11.808ZM35.031 8.928L34.5639 8.04378L34.5569 8.04753L35.031 8.928ZM42.735 24.012L43.2206 24.8862L43.228 24.8821L43.2353 24.8779L42.735 24.012ZM45.255 21.384L44.38 20.8999L44.376 20.9071L44.3721 20.9144L45.255 21.384ZM45.255 13.716L44.3721 14.1856L44.3781 14.1969L44.3844 14.2081L45.255 13.716ZM42.735 11.088L43.2353 10.2221L42.735 11.088ZM35.499 11.088L34.9987 10.2221L34.9903 10.2271L35.499 11.088ZM32.979 13.716L32.1039 13.2319L32.1004 13.2385L32.979 13.716ZM32.979 21.384L32.0961 21.8536L32.1 21.8609L32.104 21.8681L32.979 21.384ZM35.499 24.012L34.9903 24.8729L35.0017 24.8797L35.0134 24.8862L35.499 24.012ZM39.315 8.92C40.9312 8.92 42.3673 9.28942 43.646 10.014L44.632 8.27398C43.0307 7.36658 41.2508 6.92 39.315 6.92L39.315 8.92ZM43.6571 10.0202C44.9292 10.7199 45.923 11.7114 46.6495 13.0149L48.3965 12.0411C47.491 10.4166 46.2288 9.15212 44.6209 8.26778L43.6571 10.0202ZM46.6495 13.0149C47.3732 14.3132 47.747 15.8101 47.747 17.532L49.747 17.532C49.747 15.5099 49.3048 13.6708 48.3965 12.0411L46.6495 13.0149ZM47.747 17.532C47.747 19.2803 47.3721 20.7887 46.6495 22.0851L48.3965 23.0589C49.3058 21.4273 49.747 19.5757 49.747 17.532L47.747 17.532ZM46.6495 22.0851C45.9216 23.3911 44.9243 24.3976 43.646 25.122L44.632 26.862C46.2337 25.9544 47.4924 24.6809 48.3965 23.0589L46.6495 22.0851ZM43.6508 25.1192C42.3999 25.8189 40.9632 26.18 39.315 26.18L39.315 28.18C41.2668 28.18 43.0461 27.749 44.6271 26.8648L43.6508 25.1192ZM39.315 26.18C37.9183 26.18 36.6818 25.8974 35.5862 25.3496L34.6918 27.1384C36.0922 27.8386 37.6396 28.18 39.315 28.18L39.315 26.18ZM35.6069 25.3602C34.5419 24.7964 33.6589 23.9812 32.9546 22.8927L31.2754 23.9793C32.1551 25.3388 33.2881 26.3956 34.6711 27.1278L35.6069 25.3602ZM31.115 23.436L31.115 33.984L33.115 33.984L33.115 23.436L31.115 23.436ZM32.115 32.984L29.559 32.984L29.559 34.984L32.115 34.984L32.115 32.984ZM30.559 33.984L30.559 8.064L28.559 8.064L28.559 33.984L30.559 33.984ZM29.559 9.064L32.007 9.064L32.007 7.064L29.559 7.064L29.559 9.064ZM31.007 8.064L31.007 11.808L33.007 11.808L33.007 8.064L31.007 8.064ZM32.8587 12.3321C33.5376 11.2288 34.4175 10.3941 35.5051 9.80847L34.5569 8.04753C33.1485 8.80591 32.0124 9.89124 31.1553 11.2839L32.8587 12.3321ZM35.4981 9.81219C36.612 9.22371 37.877 8.92 39.315 8.92L39.315 6.92C37.585 6.92 35.994 7.28828 34.5639 8.0438L35.4981 9.81219ZM39.135 25.912C40.6129 25.912 41.9819 25.5743 43.2206 24.8862L42.2494 23.1378C41.3281 23.6497 40.2971 23.912 39.135 23.912L39.135 25.912ZM43.2353 24.8779C44.4815 24.1578 45.4522 23.1427 46.1379 21.8536L44.3721 20.9144C43.8578 21.8813 43.1485 22.6182 42.2347 23.1461L43.2353 24.8779ZM46.13 21.8681C46.8452 20.5752 47.191 19.1211 47.191 17.532L45.191 17.532C45.191 18.8229 44.9127 19.9368 44.38 20.8999L46.13 21.8681ZM47.191 17.532C47.191 15.9433 46.8454 14.4975 46.1256 13.2239L44.3844 14.2081C44.9126 15.1425 45.191 16.2407 45.191 17.532L47.191 17.532ZM46.1379 13.2464C45.4522 11.9573 44.4815 10.9422 43.2353 10.2221L42.2347 11.9539C43.1485 12.4818 43.8578 13.2187 44.3721 14.1856L46.1379 13.2464ZM43.2353 10.2221C41.9942 9.50509 40.62 9.152 39.135 9.152L39.135 11.152C40.29 11.152 41.3158 11.4229 42.2347 11.9539L43.2353 10.2221ZM39.135 9.152C37.6294 9.152 36.2425 9.50348 34.9987 10.2221L35.9993 11.9539C36.9155 11.4245 37.9526 11.152 39.135 11.152L39.135 9.152ZM34.9903 10.2271C33.7728 10.9465 32.8097 11.9562 32.104 13.2319L33.854 14.2001C34.3963 13.2198 35.1132 12.4775 36.0077 11.9489L34.9903 10.2271ZM32.1004 13.2385C31.4097 14.5092 31.079 15.9498 31.079 17.532L33.079 17.532C33.079 16.2342 33.3482 15.1308 33.8576 14.1935L32.1004 13.2385ZM31.079 17.532C31.079 19.1147 31.4099 20.5635 32.0961 21.8536L33.8619 20.9144C33.3481 19.9485 33.079 18.8293 33.079 17.532L31.079 17.532ZM32.104 21.8681C32.8097 23.1438 33.7728 24.1535 34.9903 24.8729L36.0077 23.1511C35.1132 22.6225 34.3963 21.8802 33.854 20.8999L32.104 21.8681ZM35.0134 24.8862C36.2548 25.5758 37.6364 25.912 39.135 25.912L39.135 23.912C37.9456 23.912 36.9032 23.6482 35.9846 23.1378L35.0134 24.8862ZM56.7654 25.956L56.2677 26.8234L56.2786 26.8295L56.7654 25.956ZM53.3094 22.5L52.4421 22.9977L53.3094 22.5ZM53.3094 12.564L52.4421 12.0663L53.3094 12.564ZM56.7654 9.144L56.2786 8.27052L56.7654 9.144ZM66.6294 9.144L67.1163 8.27052L67.1163 8.27052L66.6294 9.144ZM70.0494 12.564L69.1759 13.0509L69.1821 13.0617L70.0494 12.564ZM70.0494 22.5L69.182 22.0023L69.1759 22.0131L70.0494 22.5ZM66.6294 25.956L67.1163 26.8295L67.1271 26.8234L66.6294 25.956ZM65.2974 24.012L65.7915 24.8815L65.7977 24.8779L65.2974 24.012ZM67.8174 21.384L68.7003 21.8536L68.7003 21.8536L67.8174 21.384ZM67.8174 13.68L68.7003 13.2104L67.8174 13.68ZM65.2974 11.088L64.7887 11.9489L64.8002 11.9557L64.8118 11.9622L65.2974 11.088ZM58.0614 11.088L58.5555 11.9575L58.5617 11.9539L58.0614 11.088ZM55.5414 13.68L54.6664 13.1959L54.6624 13.2031L54.6586 13.2104L55.5414 13.68ZM55.5414 21.384L54.6586 21.8536L54.6624 21.8609L54.6664 21.8681L55.5414 21.384ZM58.0614 24.012L57.5527 24.8729L57.5642 24.8797L57.5758 24.8862L58.0614 24.012ZM61.6974 26.18C60.0284 26.18 58.5545 25.8083 57.2523 25.0825L56.2786 26.8295C57.9044 27.7357 59.7185 28.18 61.6974 28.18L61.6974 26.18ZM57.2631 25.0886C55.9529 24.3369 54.9285 23.3125 54.1768 22.0023L52.4421 22.9977C53.3703 24.6155 54.6499 25.8951 56.2678 26.8234L57.2631 25.0886ZM54.1768 22.0023C53.4318 20.7039 53.0494 19.2224 53.0494 17.532L51.0494 17.532C51.0494 19.5376 51.5071 21.3681 52.4421 22.9977L54.1768 22.0023ZM53.0494 17.532C53.0494 15.8416 53.4318 14.3601 54.1768 13.0617L52.4421 12.0663C51.5071 13.6959 51.0494 15.5264 51.0494 17.532L53.0494 17.532ZM54.1768 13.0617C54.9271 11.754 55.9481 10.7444 57.2523 10.0175L56.2786 8.27052C54.6548 9.17557 53.3718 10.446 52.4421 12.0663L54.1768 13.0617ZM57.2523 10.0175C58.5545 9.29166 60.0284 8.92 61.6974 8.92L61.6974 6.92C59.7185 6.92 57.9044 7.36434 56.2786 8.27052L57.2523 10.0175ZM61.6974 8.92C63.3665 8.92 64.8404 9.29166 66.1426 10.0175L67.1163 8.27052C65.4905 7.36434 63.6764 6.92 61.6974 6.92L61.6974 8.92ZM66.1426 10.0175C67.4443 10.743 68.4504 11.7491 69.1759 13.0509L70.9229 12.0771C70.0165 10.4509 68.7426 9.17697 67.1163 8.27052L66.1426 10.0175ZM69.1821 13.0617C69.9271 14.3601 70.3094 15.8416 70.3094 17.532L72.3094 17.532C72.3094 15.5264 71.8518 13.6959 70.9168 12.0663L69.1821 13.0617ZM70.3094 17.532C70.3094 19.2224 69.9271 20.7039 69.1821 22.0023L70.9168 22.9977C71.8518 21.3681 72.3094 19.5376 72.3094 17.532L70.3094 17.532ZM69.1759 22.0131C68.449 23.3174 67.4394 24.3383 66.1318 25.0886L67.1271 26.8234C68.7474 25.8937 70.0179 24.6106 70.9229 22.9869L69.1759 22.0131ZM66.1426 25.0825C64.8404 25.8083 63.3665 26.18 61.6974 26.18L61.6974 28.18C63.6764 28.18 65.4905 27.7357 67.1163 26.8295L66.1426 25.0825ZM61.6974 25.912C63.1957 25.912 64.5692 25.5759 65.7914 24.8815L64.8034 23.1425C63.9136 23.6481 62.8871 23.912 61.6974 23.912L61.6974 25.912ZM65.7977 24.8779C67.0439 24.1578 68.0146 23.1427 68.7003 21.8536L66.9346 20.9144C66.4202 21.8813 65.7109 22.6182 64.7972 23.1461L65.7977 24.8779ZM68.7003 21.8536C69.3865 20.5635 69.7174 19.1147 69.7174 17.532L67.7174 17.532C67.7174 18.8293 67.4483 19.9485 66.9346 20.9144L68.7003 21.8536ZM69.7174 17.532C69.7174 15.9493 69.3865 14.5005 68.7003 13.2104L66.9346 14.1496C67.4483 15.1155 67.7174 16.2347 67.7174 17.532L69.7174 17.532ZM68.7003 13.2104C68.013 11.9182 67.0377 10.9109 65.7831 10.2138L64.8118 11.9622C65.7171 12.4651 66.4219 13.1858 66.9346 14.1496L68.7003 13.2104ZM65.8062 10.2271C64.5816 9.50345 63.2027 9.152 61.6974 9.152L61.6974 11.152C62.8801 11.152 63.9013 11.4245 64.7887 11.9489L65.8062 10.2271ZM61.6974 9.152C60.1919 9.152 58.805 9.50348 57.5612 10.2221L58.5617 11.9539C59.4779 11.4245 60.515 11.152 61.6974 11.152L61.6974 9.152ZM57.5674 10.2185C56.3414 10.9151 55.3738 11.9172 54.6664 13.1959L56.4165 14.1641C56.9571 13.1868 57.6694 12.4609 58.5554 11.9575L57.5674 10.2185ZM54.6586 13.2104C53.9723 14.5005 53.6414 15.9493 53.6414 17.532L55.6414 17.532C55.6414 16.2347 55.9105 15.1155 56.4243 14.1496L54.6586 13.2104ZM53.6414 17.532C53.6414 19.1147 53.9723 20.5635 54.6586 21.8536L56.4243 20.9144C55.9105 19.9485 55.6414 18.8293 55.6414 17.532L53.6414 17.532ZM54.6664 21.8681C55.3721 23.1438 56.3352 24.1535 57.5527 24.8729L58.5702 23.1511C57.6756 22.6225 56.9587 21.8802 56.4165 20.8999L54.6664 21.8681ZM57.5758 24.8862C58.8172 25.5758 60.1988 25.912 61.6974 25.912L61.6974 23.912C60.508 23.912 59.4657 23.6482 58.5471 23.1378L57.5758 24.8862ZM78.9757 11.772L77.9757 11.772L79.8802 12.1986L78.9757 11.772ZM81.6397 8.892L81.1646 8.01206L81.1571 8.01616L81.6397 8.892ZM86.0677 7.92L87.0677 7.92L87.0677 6.92L86.0677 6.92L86.0677 7.92ZM86.0677 10.404L86.009 11.4023L87.0677 11.4645L87.0677 10.404L86.0677 10.404ZM85.4557 10.368L85.5145 9.36972L85.4851 9.368L85.4557 9.368L85.4557 10.368ZM80.7757 12.204L81.5111 12.8817L81.5111 12.8817L80.7757 12.204ZM79.0837 27L79.0837 28L80.0837 28L80.0837 27L79.0837 27ZM76.5277 27L75.5277 27L75.5277 28L76.5277 28L76.5277 27ZM76.5277 8.064L76.5277 7.064L75.5277 7.064L75.5277 8.064L76.5277 8.064ZM78.9757 8.064L79.9757 8.064L79.9757 7.064L78.9757 7.064L78.9757 8.064ZM79.8802 12.1986C80.3949 11.1074 81.1398 10.3092 82.1224 9.76783L81.1571 8.01616C79.7876 8.77078 78.7566 9.89259 78.0713 11.3454L79.8802 12.1986ZM82.1149 9.7719C83.1332 9.22201 84.4357 8.92 86.0677 8.92L86.0677 6.92C84.1958 6.92 82.5463 7.26598 81.1646 8.01209L82.1149 9.7719ZM85.0677 7.92L85.0677 10.404L87.0677 10.404L87.0677 7.92L85.0677 7.92ZM86.1265 9.40572L85.5145 9.36972L85.397 11.3663L86.009 11.4023L86.1265 9.40572ZM85.4557 9.368C83.244 9.368 81.3947 10.0568 80.0404 11.5263L81.5111 12.8817C82.4128 11.9032 83.6835 11.368 85.4557 11.368L85.4557 9.368ZM80.0404 11.5263C78.6929 12.9885 78.0837 14.9767 78.0837 17.352L80.0837 17.352C80.0837 15.3113 80.6026 13.8675 81.5111 12.8817L80.0404 11.5263ZM78.0837 17.352L78.0837 27L80.0837 27L80.0837 17.352L78.0837 17.352ZM79.0837 26L76.5277 26L76.5277 28L79.0837 28L79.0837 26ZM77.5277 27L77.5277 8.064L75.5277 8.064L75.5277 27L77.5277 27ZM76.5277 9.064L78.9757 9.064L78.9757 7.064L76.5277 7.064L76.5277 9.064ZM77.9757 8.064L77.9757 11.772L79.9757 11.772L79.9757 8.064L77.9757 8.064ZM101.476 25.848L102.145 26.5913L102.707 26.086L102.374 25.4078L101.476 25.848ZM99.6763 26.856L99.9727 27.8111L99.9827 27.808L99.9925 27.8047L99.6763 26.856ZM93.3763 25.74L92.6692 26.4471L93.3763 25.74ZM91.9363 10.224L92.9363 10.224L92.9363 9.224L91.9363 9.224L91.9363 10.224ZM88.5523 10.224L87.5523 10.224L87.5523 11.224L88.5523 11.224L88.5523 10.224ZM88.5523 8.064L88.5523 7.064L87.5523 7.064L87.5523 8.064L88.5523 8.064ZM91.9363 8.064L91.9363 9.064L92.9363 9.064L92.9363 8.064L91.9363 8.064ZM91.9363 3.924L91.9363 2.924L90.9363 2.924L90.9363 3.924L91.9363 3.924ZM94.4923 3.924L95.4923 3.924L95.4923 2.924L94.4923 2.924L94.4923 3.924ZM94.4923 8.064L93.4923 8.064L93.4923 9.064L94.4923 9.064L94.4923 8.064ZM100.252 8.064L101.252 8.064L101.252 7.064L100.252 7.064L100.252 8.064ZM100.252 10.224L100.252 11.224L101.252 11.224L101.252 10.224L100.252 10.224ZM94.4923 10.224L94.4923 9.224L93.4923 9.224L93.4923 10.224L94.4923 10.224ZM95.3203 24.12L94.5844 24.7971L94.5985 24.8124L94.6132 24.8271L95.3203 24.12ZM99.2803 24.732L98.9641 23.7833L98.957 23.7857L98.95 23.7881L99.2803 24.732ZM100.576 24.012L101.474 23.5718L100.903 22.4059L99.9214 23.2563L100.576 24.012ZM100.807 25.1047C100.446 25.43 99.9722 25.7033 99.3601 25.9073L99.9925 27.8047C100.82 27.5287 101.547 27.13 102.145 26.5913L100.807 25.1047ZM99.3799 25.9009C98.7849 26.0856 98.1532 26.18 97.4803 26.18L97.4803 28.18C98.3434 28.18 99.1757 28.0584 99.9727 27.8111L99.3799 25.9009ZM97.4803 26.18C95.8845 26.18 94.8033 25.7528 94.0834 25.0329L92.6692 26.4471C93.8693 27.6472 95.5241 28.18 97.4803 28.18L97.4803 26.18ZM94.0834 25.0329C93.3611 24.3106 92.9363 23.2393 92.9363 21.672L90.9363 21.672C90.9363 23.6087 91.4715 25.2494 92.6692 26.4471L94.0834 25.0329ZM92.9363 21.672L92.9363 10.224L90.9363 10.224L90.9363 21.672L92.9363 21.672ZM91.9363 9.224L88.5523 9.224L88.5523 11.224L91.9363 11.224L91.9363 9.224ZM89.5523 10.224L89.5523 8.064L87.5523 8.064L87.5523 10.224L89.5523 10.224ZM88.5523 9.064L91.9363 9.064L91.9363 7.064L88.5523 7.064L88.5523 9.064ZM92.9363 8.064L92.9363 3.924L90.9363 3.924L90.9363 8.064L92.9363 8.064ZM91.9363 4.924L94.4923 4.924L94.4923 2.924L91.9363 2.924L91.9363 4.924ZM93.4923 3.924L93.4923 8.064L95.4923 8.064L95.4923 3.924L93.4923 3.924ZM94.4923 9.064L100.252 9.064L100.252 7.064L94.4923 7.064L94.4923 9.064ZM99.2523 8.064L99.2523 10.224L101.252 10.224L101.252 8.064L99.2523 8.064ZM100.252 9.224L94.4923 9.224L94.4923 11.224L100.252 11.224L100.252 9.224ZM93.4923 10.224L93.4923 21.528L95.4923 21.528L95.4923 10.224L93.4923 10.224ZM93.4923 21.528C93.4923 22.81 93.8067 23.9518 94.5844 24.7971L96.0562 23.4429C95.7299 23.0882 95.4923 22.502 95.4923 21.528L93.4923 21.528ZM94.6132 24.8271C95.4277 25.6416 96.5291 25.984 97.7683 25.984L97.7683 23.984C96.8955 23.984 96.3649 23.7504 96.0274 23.4129L94.6132 24.8271ZM97.7683 25.984C98.4044 25.984 99.0205 25.8824 99.6107 25.6759L98.95 23.7881C98.5802 23.9176 98.1882 23.984 97.7683 23.984L97.7683 25.984ZM99.5965 25.6807C100.211 25.476 100.761 25.175 101.231 24.7677L99.9214 23.2563C99.6713 23.473 99.3579 23.652 98.9641 23.7833L99.5965 25.6807ZM99.6784 24.4522L100.578 26.2882L102.374 25.4078L101.474 23.5718L99.6784 24.4522ZM104.374 16.128L104.374 15.128L103.374 15.128L103.374 16.128L104.374 16.128ZM113.806 16.128L114.806 16.128L114.806 15.128L113.806 15.128L113.806 16.128ZM113.806 18.36L113.806 19.36L114.806 19.36L114.806 18.36L113.806 18.36ZM104.374 18.36L103.374 18.36L103.374 19.36L104.374 19.36L104.374 18.36ZM104.374 17.128L113.806 17.128L113.806 15.128L104.374 15.128L104.374 17.128ZM112.806 16.128L112.806 18.36L114.806 18.36L114.806 16.128L112.806 16.128ZM113.806 17.36L104.374 17.36L104.374 19.36L113.806 19.36L113.806 17.36ZM105.374 18.36L105.374 16.128L103.374 16.128L103.374 18.36L105.374 18.36ZM120.064 1.79999L120.064 0.799994L119.064 0.799994L119.064 1.79999L120.064 1.79999ZM122.728 1.79999L123.728 1.79999L123.728 0.799994L122.728 0.799994L122.728 1.79999ZM122.728 27L122.728 28L123.728 28L123.728 27L122.728 27ZM120.064 27L119.064 27L119.064 28L120.064 28L120.064 27ZM120.064 2.79999L122.728 2.79999L122.728 0.799994L120.064 0.799994L120.064 2.79999ZM121.728 1.79999L121.728 27L123.728 27L123.728 1.79999L121.728 1.79999ZM122.728 26L120.064 26L120.064 28L122.728 28L122.728 26ZM121.064 27L121.064 1.79999L119.064 1.79999L119.064 27L121.064 27ZM135.823 4.10399L136.823 4.10399L136.823 3.10399L135.823 3.10399L135.823 4.10399ZM126.967 4.10399L125.967 4.10399L125.967 5.10399L126.967 5.10399L126.967 4.10399ZM126.967 1.79999L126.967 0.799994L125.967 0.799994L125.967 1.79999L126.967 1.79999ZM147.343 1.79999L148.343 1.79999L148.343 0.799993L147.343 0.799993L147.343 1.79999ZM147.343 4.10399L147.343 5.10399L148.343 5.10399L148.343 4.10399L147.343 4.10399ZM138.487 4.10399L138.487 3.10399L137.487 3.10399L137.487 4.10399L138.487 4.10399ZM138.487 27L138.487 28L139.487 28L139.487 27L138.487 27ZM135.823 27L134.823 27L134.823 28L135.823 28L135.823 27ZM135.823 3.10399L126.967 3.10399L126.967 5.10399L135.823 5.10399L135.823 3.10399ZM127.967 4.10399L127.967 1.79999L125.967 1.79999L125.967 4.10399L127.967 4.10399ZM126.967 2.79999L147.343 2.79999L147.343 0.799993L126.967 0.799994L126.967 2.79999ZM146.343 1.79999L146.343 4.10399L148.343 4.10399L148.343 1.79999L146.343 1.79999ZM147.343 3.10399L138.487 3.10399L138.487 5.10399L147.343 5.10399L147.343 3.10399ZM137.487 4.10399L137.487 27L139.487 27L139.487 4.10399L137.487 4.10399ZM138.487 26L135.823 26L135.823 28L138.487 28L138.487 26ZM136.823 27L136.823 4.10399L134.823 4.10399L134.823 27L136.823 27ZM40.3922 69.56L39.9074 70.4347L39.9119 70.4371L40.3922 69.56ZM35.6762 64.988L34.8086 65.4853L34.8122 65.4916L34.8159 65.4978L35.6762 64.988ZM35.6762 51.848L34.8132 51.3428L34.8112 51.3461L35.6762 51.848ZM40.4282 47.24L39.9479 46.3629L40.4282 47.24ZM52.3802 46.52L52.0137 47.4504L52.3802 46.52ZM56.4122 49.256L57.1193 49.9631L57.7975 49.2848L57.1481 48.5789L56.4122 49.256ZM54.7202 50.948L54.0088 51.6508L54.7159 52.3665L55.4273 51.6551L54.7202 50.948ZM41.8322 49.328L41.3444 48.4551L41.8322 49.328ZM37.9802 53.072L37.1192 52.5632L37.1136 52.573L37.9802 53.072ZM37.9802 63.728L37.1135 64.227L37.1193 64.2367L37.9802 63.728ZM41.8322 67.472L41.3444 68.3449L41.8322 67.472ZM54.7202 65.816L55.4273 65.1089L54.7072 64.3888L54.0003 65.1219L54.7202 65.816ZM56.4122 67.508L57.1481 68.1851L57.7975 67.4791L57.1193 66.8009L56.4122 67.508ZM52.3442 70.28L52.7107 71.2104L52.718 71.2075L52.3442 70.28ZM47.1602 70.216C44.8173 70.216 42.7288 69.6994 40.8725 68.6829L39.9119 70.4371C42.0876 71.6286 44.5111 72.216 47.1602 72.216L47.1602 70.216ZM40.8769 68.6853C39.039 67.6667 37.5972 66.2681 36.5365 64.4782L34.8159 65.4978C36.0592 67.5959 37.7614 69.2453 39.9074 70.4347L40.8769 68.6853ZM36.5438 64.4907C35.5085 62.6845 34.9842 60.6619 34.9842 58.4L32.9842 58.4C32.9842 60.9861 33.5879 63.3555 34.8086 65.4853L36.5438 64.4907ZM34.9842 58.4C34.9842 56.138 35.5085 54.1295 36.5411 52.3499L34.8112 51.3461C33.5879 53.4545 32.9842 55.814 32.9842 58.4L34.9842 58.4ZM36.5392 52.3532C37.5989 50.5428 39.0501 49.1348 40.9085 48.1171L39.9479 46.3629C37.7743 47.5532 36.0575 49.2172 34.8132 51.3428L36.5392 52.3532ZM40.9085 48.1171C42.7648 47.1006 44.8533 46.584 47.1962 46.584L47.1962 44.584C44.5471 44.584 42.1236 45.1714 39.9479 46.3629L40.9085 48.1171ZM47.1962 46.584C48.9552 46.584 50.5575 46.8768 52.0137 47.4504L52.7467 45.5896C51.0349 44.9152 49.1811 44.584 47.1962 44.584L47.1962 46.584ZM52.0137 47.4504C53.4633 48.0215 54.6792 48.8493 55.6763 49.9331L57.1481 48.5789C55.9372 47.2627 54.465 46.2665 52.7467 45.5896L52.0137 47.4504ZM55.7051 48.5489L54.0131 50.2409L55.4273 51.6551L57.1193 49.9631L55.7051 48.5489ZM55.4316 50.2452C53.2613 48.0485 50.5143 46.96 47.2682 46.96L47.2682 48.96C50.022 48.96 52.243 49.8635 54.0088 51.6508L55.4316 50.2452ZM47.2682 46.96C45.117 46.96 43.1352 47.4543 41.3444 48.4551L42.32 50.2009C43.7931 49.3777 45.4354 48.96 47.2682 48.96L47.2682 46.96ZM41.3444 48.4551C39.5606 49.4519 38.1467 50.8245 37.1193 52.5633L38.8411 53.5807C39.6856 52.1515 40.8398 51.0281 42.32 50.2009L41.3444 48.4551ZM37.1136 52.573C36.1075 54.3204 35.6122 56.2707 35.6122 58.4L37.6122 58.4C37.6122 56.5933 38.0289 54.9916 38.8468 53.571L37.1136 52.573ZM35.6122 58.4C35.6122 60.5292 36.1075 62.4796 37.1136 64.227L38.8468 63.229C38.0289 61.8084 37.6122 60.2067 37.6122 58.4L35.6122 58.4ZM37.1193 64.2367C38.1467 65.9755 39.5606 67.3481 41.3444 68.3449L42.32 66.5991C40.8398 65.7719 39.6856 64.6485 38.8411 63.2193L37.1193 64.2367ZM41.3444 68.3449C43.1352 69.3457 45.117 69.84 47.2682 69.84L47.2682 67.84C45.4354 67.84 43.7931 67.4223 42.32 66.5991L41.3444 68.3449ZM47.2682 69.84C50.5396 69.84 53.2915 68.7383 55.44 66.5101L54.0003 65.1219C52.2609 66.9257 50.0447 67.84 47.2682 67.84L47.2682 69.84ZM54.0131 66.5231L55.7051 68.2151L57.1193 66.8009L55.4273 65.1089L54.0131 66.5231ZM55.6763 66.8309C54.6792 67.9147 53.4495 68.7564 51.9704 69.3525L52.718 71.2075C54.4549 70.5076 55.9372 69.5013 57.1481 68.1851L55.6763 66.8309ZM51.9777 69.3496C50.5215 69.9232 48.9192 70.216 47.1602 70.216L47.1602 72.216C49.1451 72.216 50.9989 71.8848 52.7107 71.2104L51.9777 69.3496ZM61.5512 44.288L61.5512 43.288L60.5512 43.288L60.5512 44.288L61.5512 44.288ZM64.1072 44.288L65.1072 44.288L65.1072 43.288L64.1072 43.288L64.1072 44.288ZM64.1072 71L64.1072 72L65.1072 72L65.1072 71L64.1072 71ZM61.5512 71L60.5512 71L60.5512 72L61.5512 72L61.5512 71ZM61.5512 45.288L64.1072 45.288L64.1072 43.288L61.5512 43.288L61.5512 45.288ZM63.1072 44.288L63.1072 71L65.1072 71L65.1072 44.288L63.1072 44.288ZM64.1072 70L61.5512 70L61.5512 72L64.1072 72L64.1072 70ZM62.5512 71L62.5512 44.288L60.5512 44.288L60.5512 71L62.5512 71ZM88.2832 52.064L89.2832 52.064L89.2832 51.064L88.2832 51.064L88.2832 52.064ZM88.2832 71L88.2832 72L89.2832 72L89.2832 71L88.2832 71ZM85.8352 71L84.8352 71L84.8352 72L85.8352 72L85.8352 71ZM85.8352 67.544L86.8352 67.544L86.8352 63.8451L84.9714 67.0401L85.8352 67.544ZM83.0632 70.244L83.5319 71.1273L83.5388 71.1236L83.5458 71.1198L83.0632 70.244ZM73.1632 69.128L72.4621 69.8411L72.4682 69.8471L72.4744 69.853L73.1632 69.128ZM71.0392 52.064L71.0392 51.064L70.0392 51.064L70.0392 52.064L71.0392 52.064ZM73.5952 52.064L74.5952 52.064L74.5952 51.064L73.5952 51.064L73.5952 52.064ZM75.0712 67.328L75.7949 66.6379L75.0712 67.328ZM83.9992 67.076L84.7206 67.7686L84.7274 67.7614L83.9992 67.076ZM85.7272 52.064L85.7272 51.064L84.7272 51.064L84.7272 52.064L85.7272 52.064ZM87.2832 52.064L87.2832 71L89.2832 71L89.2832 52.064L87.2832 52.064ZM88.2832 70L85.8352 70L85.8352 72L88.2832 72L88.2832 70ZM86.8352 71L86.8352 67.544L84.8352 67.544L84.8352 71L86.8352 71ZM84.9714 67.0401C84.3911 68.0348 83.5993 68.8068 82.5806 69.3682L83.5458 71.1198C84.879 70.3852 85.9352 69.3571 86.6989 68.0479L84.9714 67.0401ZM82.5944 69.3606C81.5814 69.8982 80.4021 70.18 79.0312 70.18L79.0312 72.18C80.6842 72.18 82.1929 71.8378 83.5319 71.1273L82.5944 69.3606ZM79.0312 70.18C76.7497 70.18 75.0633 69.5538 73.8519 68.403L72.4744 69.853C74.143 71.4382 76.3686 72.18 79.0312 72.18L79.0312 70.18ZM73.8642 68.4149C72.6978 67.2682 72.0392 65.5345 72.0392 63.044L70.0392 63.044C70.0392 65.8815 70.7965 68.2037 72.4621 69.8411L73.8642 68.4149ZM72.0392 63.044L72.0392 52.064L70.0392 52.064L70.0392 63.044L72.0392 63.044ZM71.0392 53.064L73.5952 53.064L73.5952 51.064L71.0392 51.064L71.0392 53.064ZM72.5952 52.064L72.5952 62.792L74.5952 62.792L74.5952 52.064L72.5952 52.064ZM72.5952 62.792C72.5952 64.9381 73.1259 66.737 74.3474 68.0181L75.7949 66.6379C75.0484 65.855 74.5952 64.6299 74.5952 62.792L72.5952 62.792ZM74.3474 68.0181C75.5694 69.2996 77.2663 69.876 79.2832 69.876L79.2832 67.876C77.652 67.876 76.541 67.4204 75.7949 66.6379L74.3474 68.0181ZM79.2832 69.876C81.4895 69.876 83.3433 69.2032 84.7205 67.7685L83.2778 66.3835C82.351 67.3488 81.0608 67.876 79.2832 67.876L79.2832 69.876ZM84.7274 67.7614C86.0995 66.3035 86.7272 64.3394 86.7272 62L84.7272 62C84.7272 63.9806 84.2028 65.4005 83.271 66.3906L84.7274 67.7614ZM86.7272 62L86.7272 52.064L84.7272 52.064L84.7272 62L86.7272 62ZM85.7272 53.064L88.2832 53.064L88.2832 51.064L85.7272 51.064L85.7272 53.064ZM110.022 53.144L109.529 54.0141L109.54 54.0202L110.022 53.144ZM113.406 56.528L114.279 56.0411L114.279 56.0411L113.406 56.528ZM113.406 66.536L114.279 67.0229L113.406 66.536ZM110.022 69.956L109.529 69.086L110.022 69.956ZM100.914 70.172L100.44 71.0525L100.447 71.0562L100.914 70.172ZM97.8898 67.256L98.7459 66.7391L96.8898 63.665L96.8898 67.256L97.8898 67.256ZM97.8898 71L97.8898 72L98.8898 72L98.8898 71L97.8898 71ZM95.4418 71L94.4418 71L94.4418 72L95.4418 72L95.4418 71ZM95.4418 44.288L95.4418 43.288L94.4418 43.288L94.4418 44.288L95.4418 44.288ZM97.9978 44.288L98.9978 44.288L98.9978 43.288L97.9978 43.288L97.9978 44.288ZM97.9978 55.664L96.9978 55.664L96.9978 59.0502L98.8374 56.2072L97.9978 55.664ZM101.022 52.892L101.476 53.7829L101.483 53.7795L101.022 52.892ZM108.618 68.012L109.103 68.8862L109.111 68.8821L109.118 68.8779L108.618 68.012ZM111.138 65.384L110.263 64.8999L110.259 64.9071L110.255 64.9144L111.138 65.384ZM111.138 57.68L110.255 58.1496L110.259 58.1569L110.263 58.1641L111.138 57.68ZM108.618 55.088L108.118 55.9539L108.125 55.9581L108.132 55.9622L108.618 55.088ZM101.382 55.088L101.876 55.9575L101.882 55.9539L101.382 55.088ZM98.8618 57.68L97.9868 57.1959L97.9828 57.2031L97.9789 57.2104L98.8618 57.68ZM98.8618 65.384L97.9789 65.8536L97.9828 65.8609L97.9868 65.8681L98.8618 65.384ZM101.382 68.012L100.873 68.8729L100.885 68.8797L100.896 68.8862L101.382 68.012ZM105.198 52.92C106.814 52.92 108.25 53.2894 109.529 54.014L110.515 52.274C108.914 51.3666 107.134 50.92 105.198 50.92L105.198 52.92ZM109.54 54.0202C110.812 54.7199 111.806 55.7114 112.532 57.0149L114.279 56.0411C113.374 54.4166 112.112 53.1521 110.504 52.2678L109.54 54.0202ZM112.532 57.0149C113.256 58.3132 113.63 59.8101 113.63 61.532L115.63 61.532C115.63 59.5099 115.188 57.6708 114.279 56.0411L112.532 57.0149ZM113.63 61.532C113.63 63.2539 113.256 64.7508 112.532 66.0491L114.279 67.0229C115.188 65.3932 115.63 63.5541 115.63 61.532L113.63 61.532ZM112.532 66.0491C111.804 67.3551 110.807 68.3616 109.529 69.086L110.515 70.826C112.116 69.9184 113.375 68.6449 114.279 67.0229L112.532 66.0491ZM109.529 69.086C108.25 69.8106 106.814 70.18 105.198 70.18L105.198 72.18C107.134 72.18 108.914 71.7334 110.515 70.826L109.529 69.086ZM105.198 70.18C103.76 70.18 102.495 69.8763 101.381 69.2878L100.447 71.0562C101.877 71.8117 103.468 72.18 105.198 72.18L105.198 70.18ZM101.388 69.2915C100.305 68.7085 99.426 67.8657 98.7459 66.7391L97.0337 67.7729C97.8896 69.1903 99.0264 70.2915 100.44 71.0525L101.388 69.2915ZM96.8898 67.256L96.8898 71L98.8898 71L98.8898 67.256L96.8898 67.256ZM97.8898 70L95.4418 70L95.4418 72L97.8898 72L97.8898 70ZM96.4418 71L96.4418 44.288L94.4418 44.288L94.4418 71L96.4418 71ZM95.4418 45.288L97.9978 45.288L97.9978 43.288L95.4418 43.288L95.4418 45.288ZM96.9978 44.288L96.9978 55.664L98.9978 55.664L98.9978 44.288L96.9978 44.288ZM98.8374 56.2072C99.5398 55.1217 100.418 54.322 101.476 53.7829L100.568 52.0011C99.1771 52.71 98.0398 53.7583 97.1582 55.1207L98.8374 56.2072ZM101.483 53.7795C102.575 53.2121 103.807 52.92 105.198 52.92L105.198 50.92C103.517 50.92 101.964 51.2759 100.561 52.0045L101.483 53.7795ZM105.018 69.912C106.496 69.912 107.865 69.5743 109.103 68.8862L108.132 67.1378C107.211 67.6497 106.18 67.912 105.018 67.912L105.018 69.912ZM109.118 68.8779C110.364 68.1578 111.335 67.1427 112.021 65.8536L110.255 64.9144C109.741 65.8813 109.031 66.6182 108.118 67.1461L109.118 68.8779ZM112.013 65.8681C112.728 64.5752 113.074 63.1211 113.074 61.532L111.074 61.532C111.074 62.8229 110.796 63.9368 110.263 64.8999L112.013 65.8681ZM113.074 61.532C113.074 59.9429 112.728 58.4888 112.013 57.1959L110.263 58.1641C110.796 59.1272 111.074 60.2411 111.074 61.532L113.074 61.532ZM112.021 57.2104C111.333 55.9182 110.358 54.9109 109.103 54.2138L108.132 55.9622C109.038 56.4651 109.742 57.1858 110.255 58.1496L112.021 57.2104ZM109.118 54.2221C107.877 53.5051 106.503 53.152 105.018 53.152L105.018 55.152C106.173 55.152 107.199 55.4229 108.118 55.9539L109.118 54.2221ZM105.018 53.152C103.512 53.152 102.125 53.5035 100.882 54.2221L101.882 55.9539C102.798 55.4245 103.835 55.152 105.018 55.152L105.018 53.152ZM100.888 54.2185C99.6618 54.9151 98.6942 55.9172 97.9868 57.1959L99.7368 58.1641C100.277 57.1868 100.99 56.4609 101.876 55.9575L100.888 54.2185ZM97.9789 57.2104C97.2927 58.5005 96.9618 59.9493 96.9618 61.532L98.9618 61.532C98.9618 60.2347 99.2309 59.1155 99.7447 58.1496L97.9789 57.2104ZM96.9618 61.532C96.9618 63.1147 97.2927 64.5635 97.9789 65.8536L99.7447 64.9144C99.2309 63.9485 98.9618 62.8293 98.9618 61.532L96.9618 61.532ZM97.9868 65.8681C98.6925 67.1438 99.6556 68.1535 100.873 68.8729L101.891 67.1511C100.996 66.6225 100.279 65.8802 99.7368 64.8999L97.9868 65.8681ZM100.896 68.8862C102.138 69.5758 103.519 69.912 105.018 69.912L105.018 67.912C103.828 67.912 102.786 67.6482 101.867 67.1378L100.896 68.8862Z" fill="black"/>
</g>
<defs>
<filter id="filter0_d" x="0.326614" y="0.583984" width="152.017" height="79.632" filterUnits="userSpaceOnUse" color-interpolation-filters="sRGB">
<feFlood flood-opacity="0" result="BackgroundImageFix"/>
<feColorMatrix in="SourceAlpha" type="matrix" values="0 0 0 0 0 0 0 0 0 0 0 0 0 0 0 0 0 0 127 0"/>
<feOffset dy="4"/>
<feGaussianBlur stdDeviation="2"/>
<feColorMatrix type="matrix" values="0 0 0 0 0 0 0 0 0 0 0 0 0 0 0 0 0 0 0.25 0"/>
<feBlend mode="normal" in2="BackgroundImageFix" result="effect1_dropShadow"/>
<feBlend mode="normal" in="SourceGraphic" in2="effect1_dropShadow" result="shape"/>
</filter>
</defs>
</svg>
