<svg width="65" height="65" viewBox="0 0 65 65" fill="none" xmlns="http://www.w3.org/2000/svg">
<g clip-path="url(#clip0)">
<path d="M9.39453 65C4.21434 65 0 60.7857 0 55.6055V31.4844C0 26.3042 4.21434 22.0898 9.39453 22.0898C14.5747 22.0898 18.7891 26.3042 18.7891 31.4844V55.6055C18.7891 60.7857 14.5747 65 9.39453 65ZM9.39453 27.168C7.01441 27.168 5.07812 29.1043 5.07812 31.4844V55.6055C5.07812 57.9856 7.01441 59.9219 9.39453 59.9219C11.7746 59.9219 13.7109 57.9856 13.7109 55.6055V31.4844C13.7109 29.1044 11.7746 27.168 9.39453 27.168ZM32.5 65C27.3198 65 23.1055 60.7857 23.1055 55.6055V45.1953C23.1055 40.0151 27.3198 35.8008 32.5 35.8008C37.6802 35.8008 41.8945 40.0151 41.8945 45.1953V55.6055C41.8945 60.7857 37.6802 65 32.5 65ZM32.5 40.8789C30.1199 40.8789 28.1836 42.8152 28.1836 45.1953V55.6055C28.1836 57.9856 30.1199 59.9219 32.5 59.9219C34.8801 59.9219 36.8164 57.9856 36.8164 55.6055V45.1953C36.8164 42.8153 34.8801 40.8789 32.5 40.8789ZM55.6055 65C50.4253 65 46.2109 60.7857 46.2109 55.6055V33.3887C46.2109 28.2085 50.4253 23.9941 55.6055 23.9941C60.7857 23.9941 65 28.2085 65 33.3887V55.6055C65 60.7857 60.7857 65 55.6055 65ZM55.6055 29.0723C53.2254 29.0723 51.2891 31.0086 51.2891 33.3887V55.6055C51.2891 57.9856 53.2254 59.9219 55.6055 59.9219C57.9856 59.9219 59.9219 57.9856 59.9219 55.6055V33.3887C59.9219 31.0087 57.9856 29.0723 55.6055 29.0723ZM41.4889 28.063L55.5402 13.3034C56.5071 12.2878 56.4676 10.6806 55.452 9.71369C54.4364 8.74669 52.8293 8.7863 51.8624 9.80192L37.7882 24.5854C37.7719 24.6025 37.7557 24.6199 37.7399 24.6375C36.4164 26.1083 34.1758 26.315 32.6063 25.1234L16.4859 10.4792C16.443 10.4404 16.3989 10.4029 16.3536 10.367C12.946 7.67229 8.12855 7.82488 4.89849 10.7298C4.86865 10.7567 4.83933 10.7843 4.81089 10.8125L0.753594 14.8257C-0.243496 15.8119 -0.252256 17.4195 0.734043 18.4165C1.71996 19.4133 3.32757 19.4222 4.32466 18.436L8.33358 14.4706C9.69858 13.2761 11.701 13.2078 13.1436 14.3037L29.2642 28.948C29.307 28.9868 29.3512 29.0243 29.3965 29.0601C31.0186 30.3429 32.9644 30.9703 34.9011 30.9702C37.3309 30.9701 39.7464 29.9824 41.4889 28.063ZM65 14.4727V7.61719C65 3.41707 61.5829 0 57.3828 0H50.5273C49.125 0 47.9883 1.13674 47.9883 2.53906C47.9883 3.94139 49.125 5.07812 50.5273 5.07812H57.3828C58.7829 5.07812 59.9219 6.21715 59.9219 7.61719V14.4727C59.9219 15.875 61.0586 17.0117 62.4609 17.0117C63.8633 17.0117 65 15.875 65 14.4727Z" fill="#4D5968"/>
</g>
<defs>
<clipPath id="clip0">
<rect width="65" height="65" fill="white"/>
</clipPath>
</defs>
</svg>
