<svg width="40" height="31" viewBox="0 0 40 31" fill="none" xmlns="http://www.w3.org/2000/svg">
<path d="M20 7.67922C20.6472 7.67922 21.1719 7.15453 21.1719 6.50734V1.17188C21.1719 0.524687 20.6472 0 20 0C19.3528 0 18.8281 0.524687 18.8281 1.17188V6.50734C18.8281 7.15453 19.3528 7.67922 20 7.67922Z" fill="#D18845"/>
<path d="M38.8281 18.8281H33.4927C32.8455 18.8281 32.3208 19.3528 32.3208 20C32.3208 20.6472 32.8455 21.1719 33.4927 21.1719H38.8281C39.4753 21.1719 40 20.6472 40 20C40 19.3528 39.4753 18.8281 38.8281 18.8281Z" fill="#D18845"/>
<path d="M7.67922 20C7.67922 19.3528 7.15453 18.8281 6.50734 18.8281H1.17188C0.524687 18.8281 0 19.3528 0 20C0 20.6472 0.524687 21.1719 1.17188 21.1719H6.50734C7.15453 21.1719 7.67922 20.6472 7.67922 20Z" fill="#D18845"/>
<path d="M30.9316 10.3054C31.2314 10.3054 31.5314 10.1909 31.7602 9.96209L34.6393 7.08303C35.097 6.62545 35.097 5.88342 34.6393 5.42576C34.1818 4.96811 33.4398 4.96811 32.982 5.42576L30.1029 8.30483C29.6452 8.7624 29.6452 9.50443 30.1029 9.96209C30.3317 10.1909 30.6316 10.3054 30.9316 10.3054Z" fill="#D18845"/>
<path d="M8.23976 9.96209C8.46858 10.1909 8.76851 10.3054 9.06835 10.3054C9.36819 10.3054 9.66819 10.191 9.89694 9.96209C10.3546 9.50443 10.3546 8.76248 9.89694 8.30483L7.01788 5.42576C6.5603 4.96811 5.81827 4.96811 5.36061 5.42576C4.90296 5.88342 4.90296 6.62537 5.36061 7.08303L8.23976 9.96209Z" fill="#D18845"/>
<path d="M34.4636 23.9101H29.3309C29.8472 22.6784 30.1171 21.3511 30.1171 20C30.1171 14.4214 25.5786 9.88281 20 9.88281C14.4214 9.88281 9.88281 14.4214 9.88281 20C9.88281 21.3484 10.1521 22.678 10.6681 23.9101H5.53641C4.88922 23.9101 4.36453 24.4348 4.36453 25.082C4.36453 25.7291 4.88922 26.2538 5.53641 26.2538H34.4636C35.1108 26.2538 35.6355 25.7291 35.6355 25.082C35.6355 24.4348 35.1108 23.9101 34.4636 23.9101ZM12.2266 20C12.2266 15.7138 15.7138 12.2266 20 12.2266C24.2863 12.2266 27.7734 15.7137 27.7734 20C27.7734 21.3795 27.4088 22.7266 26.7184 23.9101H13.2813C12.5916 22.7279 12.2266 21.377 12.2266 20Z" fill="#D18845"/>
<path d="M27.3616 28.4854H12.6383C11.9911 28.4854 11.4664 29.01 11.4664 29.6572C11.4664 30.3044 11.9911 30.8291 12.6383 30.8291H27.3617C28.0089 30.8291 28.5336 30.3044 28.5336 29.6572C28.5336 29.01 28.0089 28.4854 27.3616 28.4854Z" fill="#D18845"/>
</svg>
