<svg width="65" height="65" viewBox="0 0 65 65" fill="none" xmlns="http://www.w3.org/2000/svg">
<g clip-path="url(#clip0)">
<path d="M54.2098 25.7725C48.2596 25.7725 43.4188 20.8804 43.4188 14.8671C43.4188 10.2591 44.0357 2.65494 44.0619 2.33349C44.1761 0.935871 45.4036 -0.103871 46.7993 0.00962477C48.1969 0.123755 49.2374 1.34936 49.1233 2.74698C49.1171 2.82366 48.4969 10.4672 48.4969 14.8671C48.4969 18.0803 51.0597 20.6944 54.2098 20.6944C57.3599 20.6944 59.9226 18.0803 59.9226 14.8671C59.9226 10.4642 59.3026 2.82366 59.2963 2.74698C59.1821 1.34936 60.2225 0.123755 61.6201 0.00962477C63.0164 -0.10514 64.2434 0.935744 64.3576 2.33349C64.3839 2.65494 65.0007 10.2591 65.0007 14.8671C65.0007 20.8804 60.1599 25.7725 54.2098 25.7725ZM56.7488 12.3155V2.54017C56.7488 1.13785 55.6121 0.00111895 54.2098 0.00111895C52.8075 0.00111895 51.6707 1.13785 51.6707 2.54017V12.3155C51.6707 13.7178 52.8075 14.8546 54.2098 14.8546C55.6121 14.8546 56.7488 13.7178 56.7488 12.3155ZM45.9919 62.1077C47.2688 61.5281 47.8338 60.0229 47.254 58.7462C46.6745 57.4694 45.1695 56.9041 43.8925 57.484C40.3783 59.0795 36.4392 59.9229 32.5009 59.9229C17.3804 59.9229 5.07911 47.6215 5.07911 32.5011C5.07911 17.3807 17.3804 5.07935 32.5009 5.07935C33.7464 5.07935 34.9984 5.16352 36.2222 5.32945C37.611 5.51759 38.8909 4.54412 39.0794 3.15462C39.268 1.76513 38.2941 0.485824 36.9046 0.297426C35.4554 0.100904 33.9739 0.0012459 32.5009 0.0012459C23.8199 0.0012459 15.6585 3.38187 9.51992 9.52015C3.3815 15.6586 0.00100708 23.8201 0.00100708 32.5011C0.00100708 41.1821 3.38163 49.3435 9.51992 55.4821C15.6585 61.6205 23.8199 65.001 32.5009 65.001C37.158 65.0009 41.8233 64.0005 45.9919 62.1077ZM33.0436 52.6806C34.4455 52.6473 35.555 51.484 35.5218 50.0821C35.4887 48.6802 34.3289 47.5723 32.9233 47.6039C32.8024 47.6067 32.6819 47.6081 32.5614 47.6081C24.4294 47.6081 17.7185 41.0926 17.5248 32.9204C17.4294 28.9031 18.9045 25.0891 21.678 22.181C24.4517 19.2729 28.192 17.6188 32.2099 17.5235C33.428 17.4952 34.7746 17.6456 36.1066 17.9602C37.4723 18.2828 38.839 17.4374 39.1614 16.0728C39.4838 14.7081 38.6388 13.3404 37.274 13.0181C35.5265 12.6054 33.7332 12.4071 32.0896 12.4468C26.7156 12.5741 21.7132 14.7865 18.0034 18.6761C14.2936 22.5658 12.3206 27.6673 12.4482 33.0408C12.7074 43.9719 21.6822 52.6862 32.5599 52.6862C32.7201 52.6864 32.8826 52.6844 33.0436 52.6806ZM56.7488 62.4618V33.3897C56.7488 31.9873 55.6121 30.8506 54.2098 30.8506C52.8075 30.8506 51.6707 31.9873 51.6707 33.3897V62.4618C51.6707 63.8641 52.8075 65.0009 54.2098 65.0009C55.6121 65.0009 56.7488 63.8641 56.7488 62.4618Z" fill="#4D5968"/>
</g>
<defs>
<clipPath id="clip0">
<rect width="65" height="65" fill="white"/>
</clipPath>
</defs>
</svg>
