<svg width="870" height="550" viewBox="0 0 870 550" fill="none" xmlns="http://www.w3.org/2000/svg">
<g clip-path="url(#clip0)">
<path d="M434.999 -0.387451C361.996 -0.387451 302.607 57.2593 302.607 128.126C302.607 198.993 361.994 256.64 434.999 256.64C508.005 256.64 567.391 198.992 567.391 128.126C567.391 57.261 508.005 -0.387451 434.999 -0.387451ZM434.999 219.921C382.875 219.921 340.435 178.723 340.435 128.126C340.435 77.5294 382.875 36.3318 434.999 36.3318C487.123 36.3318 529.564 77.5294 529.564 128.126C529.564 178.723 487.125 219.921 434.999 219.921Z" fill="black"/>
<path d="M699.783 146.487C647.659 146.487 605.218 187.685 605.218 238.282C605.218 288.879 647.659 330.076 699.783 330.076C751.906 330.076 794.347 288.879 794.347 238.282C794.347 187.685 751.906 146.487 699.783 146.487ZM699.783 293.359C668.5 293.359 643.044 268.648 643.044 238.282C643.044 207.915 668.5 183.205 699.783 183.205C731.066 183.205 756.522 207.915 756.522 238.282C756.522 268.648 731.064 293.359 699.783 293.359Z" fill="black"/>
<path d="M172.904 146.487C120.741 146.487 78.3391 187.685 78.3391 238.282C78.3391 288.879 120.78 330.076 172.904 330.076C225.027 330.076 267.468 288.879 267.468 238.282C267.468 187.685 225.065 146.487 172.904 146.487ZM172.904 293.359C141.621 293.359 116.165 268.648 116.165 238.282C116.165 207.915 141.621 183.205 172.904 183.205C204.186 183.205 229.643 207.915 229.643 238.282C229.643 268.648 204.185 293.359 172.904 293.359Z" fill="black"/>
<path d="M434.999 293.359C299.43 293.359 189.129 400.428 189.129 532.027C189.129 542.161 197.603 550.386 208.043 550.386C218.483 550.386 226.956 542.161 226.956 532.027C226.956 420.661 320.273 330.078 434.999 330.078C549.726 330.078 643.042 420.661 643.042 532.027C643.042 542.161 651.515 550.386 661.955 550.386C672.395 550.386 680.869 542.161 680.869 532.027C680.869 400.428 570.568 293.359 434.999 293.359Z" fill="black"/>
<path d="M699.783 366.796C668.652 366.796 638.164 375.057 611.61 390.663C602.721 395.95 599.846 407.222 605.255 415.888C610.739 424.554 622.314 427.308 631.242 422.057C651.856 409.902 675.535 403.513 699.783 403.513C772.786 403.513 832.174 461.16 832.174 532.027C832.174 542.161 840.648 550.387 851.088 550.387C861.528 550.387 870.002 542.161 870.002 532.027C870 440.929 793.629 366.796 699.783 366.796Z" fill="black"/>
<path d="M258.353 390.625C231.836 375.057 201.349 366.796 170.217 366.796C76.3708 366.796 0 440.929 0 532.027C0 542.161 8.47363 550.387 18.9136 550.387C29.3536 550.387 37.8272 542.161 37.8272 532.027C37.8255 461.16 97.2136 403.513 170.217 403.513C194.464 403.513 218.142 409.902 238.721 422.019C247.609 427.27 259.26 424.516 264.707 415.85C270.154 407.184 267.278 395.913 258.353 390.625Z" fill="black"/>
</g>
<defs>
<clipPath id="clip0">
<rect width="870" height="550" fill="white"/>
</clipPath>
</defs>
</svg>
