<svg width="25" height="25" viewBox="0 0 25 25" fill="none" xmlns="http://www.w3.org/2000/svg">
<g clip-path="url(#clip0)">
<path d="M12.5 14.0815C4.98843 14.0815 0.851562 17.6351 0.851562 24.0876C0.851562 24.5916 1.26001 25.0001 1.76396 25.0001H23.236C23.7399 25.0001 24.1484 24.5916 24.1484 24.0876C24.1484 17.6354 20.0116 14.0815 12.5 14.0815ZM2.70957 23.1752C3.06846 18.3507 6.35767 15.9064 12.5 15.9064C18.6423 15.9064 21.9316 18.3507 22.2908 23.1752H2.70957V23.1752Z" fill="#4D5968"/>
<path d="M12.5001 0C9.04961 0 6.44775 2.6542 6.44775 6.17368C6.44775 9.79624 9.1628 12.743 12.5001 12.743C15.8373 12.743 18.5524 9.79624 18.5524 6.17397C18.5524 2.6542 15.9505 0 12.5001 0ZM12.5001 10.9185C10.1689 10.9185 8.27256 8.79014 8.27256 6.17397C8.27256 3.65391 10.0505 1.8248 12.5001 1.8248C14.9104 1.8248 16.7275 3.69434 16.7275 6.17397C16.7275 8.79014 14.8313 10.9185 12.5001 10.9185Z" fill="#4D5968"/>
</g>
<defs>
<clipPath id="clip0">
<rect width="25" height="25" fill="white"/>
</clipPath>
</defs>
</svg>
