<?xml version="1.0" encoding="iso-8859-1"?>
<!-- Generator: Adobe Illustrator 19.0.0, SVG Export Plug-In . SVG Version: 6.00 Build 0)  -->
<svg version="1.1" id="Layer_1" xmlns="http://www.w3.org/2000/svg" xmlns:xlink="http://www.w3.org/1999/xlink" x="0px" y="0px"
	 viewBox="0 0 469.333 469.333" style="enable-background:new 0 0 469.333 469.333;" xml:space="preserve">
<g>
	<g>
		<g>
			<path d="M426.667,0h-384C19.135,0,0,19.135,0,42.667v384c0,23.531,19.135,42.667,42.667,42.667h384
				c23.531,0,42.667-19.135,42.667-42.667v-384C469.333,19.135,450.198,0,426.667,0z M448,426.667
				c0,11.76-9.573,21.333-21.333,21.333h-384c-11.76,0-21.333-9.573-21.333-21.333v-384c0-11.76,9.573-21.333,21.333-21.333h384
				c11.76,0,21.333,9.573,21.333,21.333V426.667z"/>
			<path d="M234.667,64c-51.281,0-99.5,19.969-135.76,56.24c-4.167,4.167-4.167,10.917,0,15.083l60.333,60.333
				c4.167,4.167,10.917,4.167,15.083,0c33.271-33.271,87.417-33.271,120.687,0c2.083,2.083,4.813,3.125,7.542,3.125
				c2.729,0,5.458-1.042,7.542-3.125l60.333-60.333c4.167-4.167,4.167-10.917,0-15.083C334.167,83.969,285.948,64,234.667,64z
				 M302.177,173.406c-19.563-16.021-43.542-24.031-67.51-24.031c-10.073,0-20.078,1.741-29.826,4.57l-13.799-30.362
				c-2.417-5.354-8.729-7.75-14.125-5.292c-5.365,2.438-7.729,8.76-5.292,14.125l13.361,29.395
				c-6.214,3.271-12.236,7.013-17.829,11.595L121.76,128.01c31.198-27.604,70.896-42.677,112.906-42.677
				s81.708,15.073,112.906,42.677L302.177,173.406z"/>
		</g>
	</g>
</g>
<g>
</g>
<g>
</g>
<g>
</g>
<g>
</g>
<g>
</g>
<g>
</g>
<g>
</g>
<g>
</g>
<g>
</g>
<g>
</g>
<g>
</g>
<g>
</g>
<g>
</g>
<g>
</g>
<g>
</g>
</svg>
